<svg width="158.75mm" height="158.75mm" version="1.1" viewBox="0 0 158.75 158.75" xml:space="preserve" xmlns="http://www.w3.org/2000/svg"><g transform="translate(-41.611 -73.404)"><rect x="41.611" y="73.404" width="158.75" height="158.75" fill="#21a73f" stop-color="#000000"/><g transform="matrix(-.2637 0 0 -.26381 323.63 394.96)" fill="#fff" opacity=".5" stroke-linecap="round" stroke-linejoin="round" stroke-width="10.031"><path d="m708.08 859.8-85.407-49.708 44.458-77.778c12.285-21.637 57.913-22.222 73.707-3.5088l21.644 36.257z"/><path d="m639.05 978.52h-45.628c-17.549-1.9006-46.798-38.012-29.249-70.76 19.889-33.333 19.889-33.333 19.889-33.333l-31.004-18.129h98.276l49.723 85.38-31.004-16.959z"/><path d="m756.63 990.8v100h-109.39c-6.4348 0.5848-11.115-5.8479-14.624-11.111-51.478-91.228-50.893-90.643-53.233-93.567 2.7786 2.3392 5.8498 4.6784 14.624 4.6784z"/><path d="m946.16 990.8c11.115-1.1696 12.87-4.0936 15.794-5.848-54.988 97.076-54.988 97.076-54.988 97.076-2.3399 4.6783-7.0197 8.7719-14.039 8.7719h-60.838v35.672l-49.723-84.795 49.723-85.38v34.503z"/><path d="m847.89 884.95 85.992-49.123c45.043 76.608 45.043 76.608 45.043 76.608 16.379 31.579-11.7 61.988-30.419 65.497h-46.213z"/><path d="m753.12 721.21c-3.5099-4.6784-10.53-10.526-16.964-11.696h115.24c6.4348 0 12.285 2.3392 15.209 7.6023 29.834 52.632 29.834 52.632 29.834 52.632l29.834-16.959c-48.553 84.211-48.553 84.211-48.553 84.211h-97.106l29.249-17.544z"/></g><rect x="46.248" y="78.041" width="149.48" height="149.48" fill="none" stop-color="#000000"/></g></svg>
