<svg xmlns="http://www.w3.org/2000/svg" xmlns:svg="http://www.w3.org/2000/svg" id="svg28" width="256" height="256" enable-background="new 0 0 128 128" version="1.1" viewBox="0 0 256 256" xml:space="preserve"><linearGradient id="a" x1="64.8" x2="64.8" y1="8.969" y2="39.569" gradientTransform="scale(2)" gradientUnits="userSpaceOnUse"><stop id="stop2" offset=".048" stop-color="#bdbdbd"/><stop id="stop4" offset=".257" stop-color="#c3c3c3" stop-opacity=".78"/><stop id="stop6" offset=".532" stop-color="#d3d3d3" stop-opacity=".491"/><stop id="stop8" offset=".842" stop-color="#eee" stop-opacity=".165"/><stop id="stop10" offset="1" stop-color="#fff" stop-opacity="0"/></linearGradient><linearGradient id="b" x1="63.983" x2="63.983" y1="3.643" y2="120.78" gradientTransform="scale(2)" gradientUnits="userSpaceOnUse"><stop id="stop13" offset=".146" stop-color="#b0bec5"/><stop id="stop15" offset=".5" stop-color="#8c9fa8"/><stop id="stop17" offset="1" stop-color="#546e7a"/></linearGradient><g id="g442" transform="matrix(2.0260647,0,0,2.0260647,-1.1882741,4.8457936)" style="stroke-width:3.08481"><path id="path409" fill="#34700d" d="m 27.3,36.56 c 0,0 19.47,10.45 20.59,10.95 1.12,0.51 2.64,-0.2 3.35,-1.83 0.71,-1.62 11.16,-21.1 11.66,-21.91 0.5,-0.81 0.91,-2.33 2.74,-1.52 1.83,0.81 4.16,-5.27 4.16,-5.27 L 51.13,6.03 41.9,7.25 26.59,34.94 Z" style="stroke-width:5.62381"/><path id="path411" fill="#34700d" d="m 26.38,84.33 c 0,0 27.18,0.3 28.81,0.3 1.62,0 3.14,0.41 3.35,2.54 0.2,2.13 -0.2,26.37 -0.2,26.37 l -10.45,0.1 -15.52,-0.71 -8.32,-3.45 -6.49,-15.11 z" style="stroke-width:5.62381"/><path id="path413" fill="#34700d" d="M 107.73,43.86 86.02,56.64 c -0.51,0.3 -1.12,1.32 -0.2,2.94 0.92,1.62 11.06,20.08 11.87,21.5 0.81,1.42 1.72,3.14 0.3,4.16 -1.42,1.01 2.13,4.67 2.13,4.67 l 10.04,-1.12 6.8,-4.36 5.07,-8.42 c 0,0 -0.91,-9.94 -1.12,-10.24 -0.2,-0.3 -9.43,-18.97 -9.43,-18.97 z" style="stroke-width:5.62381"/><path id="path415" fill="#7cb342" d="m 75.45,37.56 c 0,0 -10.57,-16.32 -13.97,-20.17 C 58.81,14.36 55.93,11.88 53.41,9.83 51.13,7.98 49.46,7.64 47.48,7.95 44.36,8.44 42.54,9.94 40.79,12.92 35.52,21.87 27.3,36.56 27.3,36.56 c 0,0 -2.89,-0.91 -2.94,-2.84 C 24.3,31.88 36.12,11.81 37.34,9.68 38.56,7.55 40.59,4.81 46.16,4.51 51.73,4.21 80.95,4 82.57,4.31 c 1.62,0.31 5.38,1.83 8.82,7.1 3.94,6.03 6.45,11.38 6.45,11.38 0,0 7.75,-4.59 8.56,-4.08 1.22,0.76 -10.81,24.33 -11.77,25.15 -0.6,0.52 -27.69,2.23 -28.3,0.71 -0.39,-1.01 9.12,-7.01 9.12,-7.01 z" style="stroke-width:5.62381"/><path id="path417" fill="#7cb342" d="m 107.73,43.86 c 0,0 1.43,-1.27 2.57,-0.92 1.14,0.36 11.67,22.88 12.72,25.08 1.06,2.2 1.67,7.48 -1.58,12.76 -3.26,5.28 -18.92,28.87 -20.07,30.28 -1.14,1.41 -1.76,2.64 -4.93,2.64 -3.17,0 -15.14,-0.18 -15.14,-0.18 0,0 -0.44,8.89 -0.53,9.68 -0.09,0.79 -1.41,1.32 -2.29,-0.26 C 77.6,121.36 65.1,100.23 65.1,99.7 c 0,-0.53 12.23,-24.71 14,-24.47 1.27,0.18 1.14,9.77 1.14,9.77 0,0 27.55,-0.53 30.28,-0.7 2.73,-0.18 5.37,-1.23 6.78,-3.34 1.41,-2.11 4.58,-7.13 2.2,-12.32 -2.12,-4.62 -9.42,-18.92 -10.47,-21.04 -0.67,-1.33 -1.64,-2.73 -1.3,-3.74 z" style="stroke-width:5.62381"/><path id="path419" fill="#7cb342" d="m 58.33,113.54 c -0.39,1.53 -1.59,1.57 -3,1.66 -1.41,0.09 -20.42,0 -24.56,-0.44 -4.14,-0.44 -8.1,-3.52 -9.59,-6.95 C 19.68,104.38 13.61,93.64 9.39,84.75 5.17,75.86 4.2,73.31 3.93,71.28 3.66,69.25 5.95,64.15 8.24,60.45 c 2.29,-3.7 3.87,-5.99 3.87,-5.99 0,0 -8.29,-5.46 -8.45,-6.51 -0.11,-0.7 8.35,-0.95 15.58,-1.23 7.12,-0.28 14.35,-0.44 14.88,0.09 0.53,0.53 4.31,8.36 6.51,12.85 2.2,4.49 6.69,12.76 6.6,13.55 -0.13,1.14 -1.29,0.57 -2.96,-0.14 -1.67,-0.7 -7.86,-3.91 -7.86,-3.91 0,0 -6.95,11.88 -9.68,17.43 -2.73,5.55 -5.37,10.91 -4.67,15.84 0.43,2.98 4.05,8.27 10.74,8.98 6.69,0.71 21.56,0.26 23.33,0.35 1.76,0.1 2.56,0.39 2.2,1.78 z" style="stroke-width:5.62381"/><path id="path421" fill="#fff" d="m 15.28,56.68 c -1.17,-0.48 -3.45,1.79 -6.6,8.29 -2.52,5.19 -2.63,7.1 -1.34,9.44 1.11,2.01 3.18,5.33 4.09,5.35 1.14,0.02 1.06,-6.68 2,-11.55 1.32,-6.86 3.43,-10.87 1.85,-11.53 z" opacity=".3" style="stroke-width:5.62381"/><path id="path423" fill="#fff" d="m 56.04,6.5 c -0.85,0.77 3.27,4.28 4.63,4.41 1.85,0.18 22.53,-0.09 24.03,-0.09 1.5,0 2.38,-1.06 0.97,-2.46 C 84.26,6.96 82.59,6.34 81.45,6.16 80.86,6.07 75.47,6.21 69.39,6.25 63.6,6.29 56.99,5.65 56.04,6.5 Z" opacity=".3" style="stroke-width:5.62381"/><path id="path425" fill="#fff" d="m 75.76,85.1 c -1.25,0.51 -6.87,12.94 -6.95,13.91 -0.09,0.97 3.35,6.24 4.58,6.06 1.23,-0.18 2.63,-6.27 3.16,-11.75 0.35,-3.67 0.66,-8.81 -0.79,-8.22 z" opacity=".3" style="stroke-width:5.62381"/></g></svg>