<svg xmlns="http://www.w3.org/2000/svg" xmlns:svg="http://www.w3.org/2000/svg" id="svg28" width="256" height="256" enable-background="new 0 0 128 128" version="1.1" viewBox="0 0 256 256"><linearGradient id="a" x1="64.8" x2="64.8" y1="8.969" y2="39.569" gradientTransform="scale(2)" gradientUnits="userSpaceOnUse"><stop id="stop2" offset=".048" stop-color="#bdbdbd"/><stop id="stop4" offset=".257" stop-color="#c3c3c3" stop-opacity=".78"/><stop id="stop6" offset=".532" stop-color="#d3d3d3" stop-opacity=".491"/><stop id="stop8" offset=".842" stop-color="#eee" stop-opacity=".165"/><stop id="stop10" offset="1" stop-color="#fff" stop-opacity="0"/></linearGradient><linearGradient id="b" x1="63.983" x2="63.983" y1="3.643" y2="120.78" gradientTransform="scale(2)" gradientUnits="userSpaceOnUse"><stop id="stop13" offset=".146" stop-color="#b0bec5"/><stop id="stop15" offset=".5" stop-color="#8c9fa8"/><stop id="stop17" offset="1" stop-color="#546e7a"/></linearGradient><path id="path20" fill="#424242" d="m 128.4,188.4 c -30.000002,0 -60.400001,9.8 -60.600002,28.59999 -0.399999,19.00002 30.199999,29 60.600002,29 30.4,0 61,-9.99998 60.6,-29 C 188.6,198 158.2,188.2 128.4,188.4 Z" style="stroke-width:.999996"/><path id="path22" fill="url(#a)" d="m 216.6,44.2 3.59999,-3.8 C 218.2,38.6 216,37 213.4,35.6 l -2.40001,2.599999 -2.2,2.200001 L 199.2,30.800001 198,29.6 198.8,28.8 C 193.2,26.800001 187.2,25 180.4,23.4 l 0.6,0.6 5.6,5.6 -9.6,10 -9.8,-9.8 7.2,-7.4 0.2,-0.200003 C 172.6,21.8 170.8,21.399999 168.8,21.200001 167.6,21 166.2,20.8 165,20.599999 L 162,24 157.6,19.4 C 150.8,18.6 144,18.2 136.8,18 l -6.6,6.8 -6.6,-6.8 c -6.8,0.2 -13.4,0.6 -19.8,1.2 l -5.400002,5.399999 -4.2,-4.199998 c -3.2,0.399999 -6.4,0.999998 -9.6,1.6 h -0.200002 l 8.2,8.399999 -10.6,10.8 -9.999999,-10.6 7.4,-7.4 L 79.6,22.999997 c -7.600001,1.6 -14.400002,3.600001 -20.600001,6.000001 l 0.8,0.8 0.8,0.8 -9.800001,9.8 L 47.4,36.799997 l -1.400002,-1.6 c -2.599998,1.6 -4.999998,3.2 -6.999999,4.8 l 2.4,2.4 3.600001,3.8 -5.800001,5.8 c 0.200003,0.399999 0.399999,1.000001 0.6,1.4 0.400001,0.400001 0.600001,1 1,1.399999 0.8,1.200001 2.000001,2.4 3.2,3.600001 l 6.4,-6.6 10.2,10.6 -3.8,3.799999 c 2.000001,0.8 4,1.6 6.000001,2.4 0.8,0.200003 1.6,0.6 2.4,0.8 l 0.999998,-1.199999 2.000001,2.2 c 7.599999,2.4 15.400001,4 23,5.199999 L 97.599998,68.999997 106,77.999996 c 4.2,0.400001 8.2,0.600001 12.2,0.800002 h 2.2 l 9.6,-10.000001 9.4,9.8 c 4.4,-0.200002 8.8,-0.400001 13,-0.8 l 9,-9.400001 7.2,7.4 c 8.8,-1.399999 16.8,-3.4 23.8,-5.8 l 1.8,-1.799999 1,0.999999 c 3,-0.999999 5.6,-2.2 8,-3.599999 l -3.4,-3.4 9.59999,-10.2 5.20001,5.200001 c 1.8,-2.000001 2.79999,-3.800001 3.2,-5 0,-0.200003 0.19996,-0.400001 0.19996,-0.6 0,-0.200002 0,-0.200002 0,-0.400001 l 0.19996,-0.399999 c 0,-0.200002 0,-0.400001 0,-0.600001 0,-0.399999 0,-0.6 0,-0.8 l -3.4,-3.400001 z m -70.2,-24.4 10,10 L 145.8,40.799999 135.8,30.6 Z M 114.2,20 124.4,30.6 114.2,41 104,30.4 Z M 66.599999,57 56.399998,46.399999 l 9.8,-9.8 10.2,10.6 z m 15.8,16.599999 -10.2,-10.800001 9.799999,-9.999999 10.200001,10.799999 z m 5.399999,-26.6 L 98.399998,36.2 108.6,46.799998 97.999997,57.599999 Z M 113.6,73.999998 l -10,-10.4 10.6,-10.799999 10,10.4 z m 6.4,-27.2 10.2,-10.4 L 140.2,46.6 130,57.199998 Z m 25.4,26.200001 -9.8,-10 10.2,-10.600001 9.8,10.000001 z m 15.8,-16.4 L 151.4,46.6 162,35.599998 l 9.8,9.800001 z M 177.6,73.399998 166.8,62.399999 177.4,51.4 188,62.199999 Z M 193.8,56.4 183,45.599999 192.6,35.4 203.4,46.199999 Z" style="fill:url(#a);stroke-width:.999996"/><path id="path24" fill="url(#b)" d="m 230.19999,47.4 c 0,-0.600002 -0.19996,-1.400002 -0.4,-2.200002 -0.19996,-0.399999 -0.19996,-0.8 -0.39999,-1.399999 -0.19996,-0.399999 -0.4,-1.000001 -0.6,-1.4 C 227.2,38.199999 223.39999,33.2 218,29 c -5.40001,-4.2 -12.39999,-7.600001 -20.6,-10.6 -8.2,-3 -17.6,-5.2 -27.8,-7 C 159.4,9.7999999 148.2,8.5999998 136.2,8.1999998 124.4,7.8 112,7.9999999 98.999998,9.3999998 85.999998,10.8 72.799999,13.2 59.4,17.8 c -6.600001,2.4 -13.400002,5.199999 -19.800002,9.6 -3.2,2.2 -6.199999,4.8 -8.999998,8.399999 -0.8,0.8 -1.200001,1.8 -1.8,2.800001 -0.6,0.999998 -1.200001,1.999999 -1.6,3.2 l -0.6,1.799998 C 26.399998,44.2 26.199999,45 25.999999,45.599999 L 25.799996,46.6 v 0.599999 L 25.6,48.399998 V 49 v 0.200002 0.399999 1.000001 c 0,0.599999 0,1.199999 0.200002,1.799998 0.200003,0.600002 0.200003,1.200001 0.399999,1.800001 l 0.400001,1.8 c 0.399999,1.199999 0.8,2.2 1.4,3.400001 0.599999,0.999998 1,1.999999 1.8,2.999999 2.4,3.599999 5.399999,6.6 8.399999,9 0.8,0.6 1.6,1.199999 2.199999,1.6 3.400001,22.2 6.600001,44.599999 10.200002,67.399999 l 12,76.79999 c 0,2.20001 0.599999,4.40002 1.399999,6.2 1.000001,2.20001 2.199999,3.80001 3.4,5.40001 2.599999,2.99999 5.4,5 8.199999,6.6 5.6,3.4 11.4,5.39999 17.200001,6.99999 5.8,1.6 11.799999,2.60001 17.599999,3.4 3,0.4 6,0.60001 8.8,0.80001 1.4,0 3,0.19996 4.4,0.19996 h 4.4 c 11.8,0 23.6,-1.19999 35.4,-4.40001 5.8,-1.6 11.6,-3.79999 17.2,-6.99999 2.8,-1.8 5.6,-3.80001 8.2,-6.6 1.2,-1.4 2.4,-3.2 3.4,-5.40001 0.8,-1.8 1.4,-3.99999 1.4,-6.2 L 205,140.99996 c 3.4,-23 6.6,-45.599999 10,-67.999999 1.6,-1 3,-2.199999 4.4,-3.2 5.2,-4.400001 8.79999,-9.6 9.8,-14.000001 0.19996,-0.599999 0.40001,-1 0.40001,-1.6 0.19996,-0.599999 0.19996,-1 0.19996,-1.6 0,-0.599999 0.19996,-1 0.19996,-1.399999 0,-0.400001 0,-0.6 0,-0.8 0,-0.8 0,-1.200001 0,-1.200001 v -0.399999 c 0.40001,0.399999 0.40001,-0.200003 0.19996,-1.4 z M 194,139.4 l -2.4,15 -7.4,-8 10.6,-11.8 c -0.20001,1.8 -0.6,3.2 -0.8,4.8 z m -97.6,90.79999 c -2.000001,-0.59998 -4,-1.19999 -5.800001,-1.8 l -7.4,-8.2 11.4,-12.4 11.000001,12.2 c 0.2,0 -9.2,10.40001 -9.2,10.2 z M 57.599999,93.199998 l -2.800001,2.8 c -0.399999,-2.399999 -0.8,-5 -1.199999,-7.4 -0.200002,0 4,4.6 4,4.6 z m 5.4,6 10.8,11.800002 -11.4,12 L 58.6,118.8 56.399998,106 Z m 10.8,-11.199999 c 1.4,0.400001 2.799999,0.8 4.199999,1 3.2,0.8 6.200001,1.4 9.400001,1.999999 l 2.799999,3 L 79.799998,105 68.999999,93.199998 Z M 128.8,99.599997 139,110.6 l -11.2,12 -10.2,-11 z m 37.8,128.599993 c -2,0.80001 -3.8,1.40002 -6,2 l -8.8,-9.6 L 163,208.2 174,220.00001 Z M 78.8,140.8 67.999999,129 l 11.4,-12 10.799999,11.6 z m 16.999998,-6 L 106,146 l -11.400001,12.2 -10.4,-11.2 z m -17.199999,18.2 10.4,11.2 -11.000001,11.8 -10.2,-11.4 C 67.599996,164.8 78.599999,153 78.599999,153 Z m 16,17.6 L 106,183 l -11.000002,12 -11.2,-12.4 z m 5.800001,-6.2 11.4,-12.2 11.2,12.4 -11.2,12.2 c 0,-0.20001 -11.4,-12.4 -11.4,-12.4 z M 128.8,158.2 117.4,146 127.8,134.8 139,147 c 0.2,0 -10.2,11.2 -10.2,11.2 z m 16,-5 11,12 -10.4,11.4 -11,-12 z m -16,17.4 11,12 -11.2,12.4 -11,-12 c -0.2,0 11.2,-12.4 11.2,-12.4 z M 145.6,189 157.2,201.8 146,214.19999 134.2,201.4 c 0.2,0 11.4,-12.4 11.4,-12.4 z m 17.4,6.4 -11.6,-12.6 10.4,-11.4 11.6,12.6 z m -12.4,-48.4 11.2,-12.2 11,11.8 -11.2,12.2 z m 16.8,-18.4 10.8,-11.6 11,11.6 -10.8,11.8 z m -5.8,-6 -11.2,-12 L 161.2,98.999998 172.4,111 c -0.20001,-0.2 -10.8,11.6 -10.8,11.6 z m -5.6,6 -11.2,12.2 -11.2,-12.2 11.2,-12 z m -33.8,0 -10.4,11.2 -10.2,-11.2 10.4,-11 z m -26.400002,-6 -10.799999,-11.6 10.4,-11.000002 L 106.2,111.6 Z m -33.599999,12.6 10.8,11.8 -8.2,8.6 L 62,138.8 c -0.200002,-1 -0.400001,-2 -0.400001,-2.8 -0.200002,-0.2 0.6,-0.8 0.6,-0.8 z m 9.8,47.4 -2.4,2.4 -1.000001,-6.2 z m -0.6,13 6.2,-6.8 11.2,12.6 L 77.399998,213.79999 73.799999,209.6 Z m 29.200001,5.8 11.2,-12.2 11,12.2 -11.2,12.20001 c 0,0 -11,-12.20001 -11,-12.20001 z m 28,6.39999 11.8,12.8 -11.2,12.4 -11.6,-12.99998 c -0.2,0 11,-12.20002 11,-12.20002 z m 17.6,19.2 4.8,5.40001 c -3.6,0.59999 -7.2,0.99999 -10.8,1.4 0,-0.19996 6,-6.80001 6,-6.80001 z M 179.8,213.60001 169,201.8 l 10.4,-11.6 5.6,6.2 -2.2,13.99999 c -0.2,0 -3,3.20002 -3,3.20002 z m 5,-29.60001 2.4,-2.6 -0.8,4.4 z m 5,-18.4 -10.8,12 -11.6,-12.6 11.2,-12.4 11.4,12.2 z m 4.8,-43 L 183.6,111 194.8,98.799999 200,104.2 c -0.8,5.2 -1.6,10.4 -2.6,15.6 0,-0.2 -2.8,2.8 -2.8,2.8 z M 200.2,92.799999 202,90.8 c -0.19996,0.999998 -0.4,2.199999 -0.6,3.2 0.2,0 -1.2,-1.200001 -1.2,-1.200001 z M 194.4,86.8 l -2,-2.200002 c 2.2,-0.8 4.2,-1.6 6.2,-2.4 0,0.200003 -4.2,4.600002 -4.2,4.600002 z m -10.6,0.599999 5.2,5.4 L 177.8,104.8 166.6,92.799999 168.4,90.8 c 0.8,-0.200003 1.6,-0.400001 2.6,-0.400001 4.4,-0.8 8.8,-1.800001 12.8,-3 z m -28.6,5.6 L 144.6,104.4 135.2,94.399999 h 1.2 c 6.6,-0.200003 12.8,-0.6 18.8,-1.4 z m -37.6,1.4 c 1.6,0 3,0 4.4,0.200002 L 112,105.4 101.2,93.800001 l 0.8,-0.8 c 5.2,0.6 10.6,1.199999 15.6,1.399998 z m -54.400001,-7.2 -3.2,-3.600001 c 1.800001,0.600001 3.400001,1.200001 5,1.8 z M 106.2,232.4 l 5.4,-6.00001 6.6,7.40001 c -2,-0.19996 -4,-0.40001 -6.2,-0.60001 -2,-0.19996 -4,-0.4 -5.8,-0.79999 z m 112,-181.600002 -0.19996,0.200003 v 0.400001 c 0,0 -0.19996,0.399999 -0.19996,0.599999 -0.60001,1.800001 -2.40001,4.8 -6.4,8 -4.00001,3.2 -10,6.199999 -17.4,8.8 -7.4,2.6 -16.2,4.8 -26,6.199999 -9.8,1.6 -20.6,2.4 -32,2.800001 -2.8,0 -5.8,0 -8.6,0.200003 -1.6,0 -3,0 -4.6,0 -1.4,0 -3,0 -4.4,0 -6,-0.200003 -12.2,-0.6 -18.4,-1.4 -12.400002,-1.399999 -25.000001,-3.799999 -37.000001,-8 -5.999999,-2.199999 -11.599999,-4.799999 -16.399999,-8.2 -2.4,-1.6 -4.400001,-3.599999 -5.8,-5.6 -0.399999,-0.399999 -0.599999,-0.999998 -1,-1.399999 -0.200003,-0.399999 -0.6,-1.000001 -0.6,-1.4 L 38.999999,51.199999 38.799998,50.6 c 0,-0.200003 0,-0.400001 0,-0.600002 v -0.399999 -0.200002 -0.8 c 0,-0.200003 0,-0.399999 0,-0.6 v -0.200002 c 0,-0.200003 0,-0.200003 0,-0.399999 l 0.200003,-0.8 c 0.200002,-0.400001 0.400001,-1.000001 0.599999,-1.6 0.400001,-0.400001 0.600002,-1.000001 1.000001,-1.6 1.399999,-2.000001 3.600001,-4 6.000001,-5.800001 4.8,-3.600001 10.6,-6.4 16.399999,-8.799999 5.8,-2.4 12.2,-4.200001 18.399999,-5.6 6.200002,-1.4 12.400001,-2.600001 18.6,-3.4 12.6,-1.6 24.6,-2.2 36,-1.8 11.4,0.4 22.2,1.4 32,3.199999 9.8,1.8 18.6,4.2 26,7.2 7.4,2.8 13.39999,6.200001 17.4,9.599999 3.99999,3.400001 5.99999,6.4 6.6,8.400001 0.59999,1.6 0.39999,2.600001 0.59999,2.799999 v 1.000001 c -0.19996,0.200002 -0.19996,0.400001 -0.39999,0.599999 z" style="fill:url(#b);stroke-width:.999996"/><path id="path26" fill="#424242" d="m 127,14.4 c 3,0 6.2,0 9.4,0.2 11,0.4 22,1.4 32.4,3.2 10,1.8 19.2,4 26.8,6.799999 7.8,2.800001 14.2,6.200002 19.2,9.8 5,3.8 7.8,8 8.79999,10.600001 L 224,46.199999 l 0.19996,1 c 0.19996,0.8 0.19996,1.000001 0.19996,1.200001 v 0.200003 l 0.19996,1.6 v 1.200001 0.399999 l -0.19996,1 c 0,0.400001 -0.19996,0.6 -0.19996,1.000001 L 224,54.200003 l -0.19997,1 c -0.79999,2.600001 -3.2,7 -8,10.999999 -1.19999,1.000001 -2.39999,2.000001 -3.79998,3.000002 -1.40002,0.999998 -2.20001,2.4 -2.60002,4 -0.99999,6.4 -1.8,12.999998 -2.79999,19.399998 -2.20001,15.799998 -4.6,32.199998 -7.2,48.599998 l -11.4,76.19999 V 218 c 0,1.4 -0.4,2.8 -1,3.99999 -0.6,1.4 -1.4,2.60001 -2.4,3.80001 -2.2,2.39999 -4.6,4.19999 -6.8,5.40001 -4.4,2.59999 -9.4,4.59999 -15.8,6.4 -10.2,2.79999 -21.2,4.19999 -33.8,4.19999 -0.4,0 -1,0 -1.4,0 -1,0 -1.8,0 -2.8,0 -1.4,0 -3,-0.19996 -4.2,-0.19996 -3.4,-0.19997 -6,-0.40001 -8.6,-0.79999 -6,-0.80001 -11.400002,-1.80001 -16.800001,-3.2 -6.4,-1.80001 -11.4,-3.80001 -15.799999,-6.4 -2.000001,-1.40002 -4.600002,-3.00002 -6.800001,-5.40001 -0.999999,-1.2 -1.800001,-2.40001 -2.4,-3.80001 -0.6,-1.19999 -0.8,-2.59999 -1.000001,-3.99999 0,-0.19996 0,-0.4 0,-0.60001 L 56.399998,140.6 C 54.6,124 51.999999,107.2 49.599999,91.199999 c -1,-6.000001 -1.8,-12 -2.799999,-18.000001 -0.2,-1.599998 -1.200001,-3 -2.4,-4 C 43.6,68.799999 42.999999,68.199999 42.399999,67.6 c -3.2,-2.400002 -5.399999,-4.8 -7.2,-7.600001 l -0.200002,-0.200002 c -0.200003,-0.399999 -0.6,-0.8 -0.8,-1.4 l -0.399999,-0.599999 c 0,-0.200003 -0.200003,-0.400001 -0.200003,-0.6 -0.200002,-0.600001 -0.599999,-1.200001 -0.599999,-1.600002 l -0.400001,-1.6 c 0,-0.200002 0,-0.599999 -0.200003,-0.999998 v -0.400001 c 0,-0.399999 0,-0.6 0,-0.8 v -0.200003 -0.8 -0.399999 -0.400001 -0.200002 l 0.200003,-1.000001 V 48.39999 l 0.200002,-0.8 c 0,-0.399999 0.200003,-0.999998 0.400001,-1.399999 l 0.6,-1.6 c 0.200002,-0.399999 0.399999,-1.000001 0.8,-1.6 0,-0.200003 0.200002,-0.399999 0.399999,-0.6 0.200002,-0.200002 0.200002,-0.400001 0.400001,-0.599999 0.399999,-0.600002 0.599999,-1.000001 0.999998,-1.400002 0,0 0,0 0.200003,-0.200002 2.000001,-2.600001 4.400001,-4.8 7.600001,-7.2 6.4,-4.400001 13.199999,-7.2 18.199999,-9 C 73.599999,20.2 86.199998,17.4 100.6,15.8 c 8,-1 16.8,-1.4 26.4,-1.4 m 0,-6.0000001 c -8.8,0 -18,0.4 -27.600001,1.3999998 C 86.399999,11.2 73.199998,13.6 59.799999,18.2 c -6.599999,2.399999 -13.4,5.2 -19.8,9.599999 -3.2,2.2 -6.199999,4.8 -9,8.400001 -0.8,0.8 -1.199999,1.799998 -1.799998,2.799999 -0.600002,1 -1.200001,2.000001 -1.600002,3.2 l -0.6,1.8 c -0.200002,0.6 -0.399999,1.4 -0.599999,1.999999 l -0.200003,1.000001 v 0.599999 L 25.999995,49.2 v 0.6 0.200002 0.399999 1.000001 c 0,0.599999 0,1.199999 0.200002,1.8 0.200003,0.6 0.200003,1.199999 0.400001,1.799999 l 0.399999,1.8 c 0.400001,1.199999 0.8,2.2 1.4,3.400001 0.600001,0.999998 1,1.999999 1.8,2.999999 2.4,3.600001 5.399999,6.6 8.599999,9 0.8,0.6 1.6,1.199999 2.200002,1.6 3.4,22.199997 6.6,44.599999 10.200001,67.399999 l 12,76.8 c 0,2.19999 0.599999,4.4 1.399999,6.2 1.000001,2.19999 2.200002,3.80001 3.400001,5.40001 2.6,2.99999 5.399999,4.99998 8.2,6.59998 5.6,3.4 11.400001,5.40001 17.199999,7.00001 5.8,1.6 11.800002,2.59999 17.600002,3.4 3,0.4 6,0.59999 8.8,0.79999 1.4,0 3,0.19996 4.4,0.19996 h 4.4 c 11.8,0 23.6,-1.19999 35.4,-4.39999 5.8,-1.6 11.6,-3.80001 17.2,-7.00001 2.8,-1.8 5.6,-3.79999 8.2,-6.59998 1.2,-1.40002 2.4,-3.20002 3.4,-5.40001 0.8,-1.8 1.4,-4.00001 1.4,-6.2 l 11.40001,-76.2 c 3.39998,-23 6.59998,-45.600001 9.99998,-68.000001 1.6,-1 3,-2.199999 4.40002,-3.2 5.19998,-4.400001 8.79999,-9.6 9.79998,-14.000001 0.19996,-0.599999 0.4,-0.999998 0.4,-1.6 0.19997,-0.599999 0.19997,-0.999998 0.19997,-1.6 0,-0.599999 0.19996,-0.999998 0.19996,-1.399999 0,-0.399999 0,-0.6 0,-0.8 0,-0.8 0,-1.199999 0,-1.199999 v -0.399961 c 0,0 0,-0.599999 -0.19996,-1.8 0,-0.6 -0.19997,-1.4 -0.40001,-2.2 -0.19996,-0.399999 -0.19996,-0.8 -0.39998,-1.399999 -0.19997,-0.400001 -0.40001,-1.000001 -0.60001,-1.4 -1.6,-4.2 -5.40001,-9.200001 -10.8,-13.400001 C 212.8,25.200001 205.79999,21.6 197.6,18.8 189.6,16 180.2,13.6 170,11.8 159.8,10.2 148.6,8.9999998 136.6,8.5999998 133.4,8.3999993 130.2,8.3999993 127,8.3999999 Z" opacity=".2" style="stroke-width:.999996"/></svg>