<svg version="1.1" viewBox="0 0 750 1236" xml:space="preserve" xmlns="http://www.w3.org/2000/svg"><g transform="translate(-1743 -2945.8)"><g transform="matrix(.46526 0 0 .46526 1181.2 2161.1)" fill="#e6e6e6" stop-color="#000000" stroke-linecap="round" stroke-linejoin="round" stroke-width="21.275" style="shape-inside:url(#rect5566);white-space:pre" aria-label="Будьте с нами"><path d="m1816 3785.7v-41.684h25.991v5.414h-19.702v11.398h9.3219q4.6405 0 7.8767 1.5061 3.2566 1.5062 4.9663 4.2539 1.73 2.7477 1.73 6.4724t-1.73 6.5741q-1.7097 2.8495-4.9663 4.4575-3.2362 1.6079-7.8767 1.6079zm6.2892-5.2919h9.3219q2.6866 0 4.5388-1.0584 1.8725-1.0584 2.8291-2.7477 0.977-1.6894 0.977-3.6229 0-2.8088-2.1575-4.8238-2.1575-2.0353-6.1874-2.0353h-9.3219z"/><path d="m1857 3797.5q-1.3637 0-2.4831-0.2239-1.1195-0.2036-1.669-0.4478l1.4654-4.9866q1.669 0.4478 2.9716 0.3867 1.3026-0.061 2.3-0.9769 1.0176-0.916 1.7911-2.992l0.753-2.0761-11.439-31.67h6.5131l7.9175 24.261h0.3257l7.9174-24.261h6.5335l-12.884 35.435q-0.8956 2.4424-2.2796 4.1318-1.384 1.7097-3.2973 2.5645-1.9132 0.8549-4.437 0.8549z"/><path d="m1880 3794.8v-14.288h2.5442q0.9769-0.8955 1.6486-2.1371 0.692-1.2415 1.1601-2.9512 0.4885-1.7097 0.8142-3.9893 0.3256-2.2999 0.5699-5.2512l0.9769-11.662h21.249v25.991h4.8034v14.288h-5.9432v-9.0165h-21.798v9.0165zm9.0573-14.288h13.962v-20.781h-9.851l-0.6514 6.452q-0.4681 4.9255-1.1805 8.5485-0.7123 3.6025-2.2795 5.7803z"/><path d="m1924.3 3765.2h9.0776q5.7397 0 8.8334 2.8495t3.0937 7.3476q0 2.9309-1.384 5.2715-1.384 2.3407-4.0503 3.7043-2.6663 1.3434-6.4928 1.3434h-13.657v-31.263h5.9635v26.012h7.6936q2.6256 0 4.315-1.3637 1.6893-1.384 1.6893-3.5211 0-2.2593-1.6893-3.684-1.6894-1.4451-4.315-1.4451h-9.0776z"/><path d="m1947.1 3759.7v-5.2512h26.378v5.2512h-10.197v26.012h-5.9432v-26.012z"/><path d="m1991.9 3786.4q-4.6202 0-7.9582-1.9743-3.3176-1.9946-5.1291-5.5972-1.7911-3.6229-1.7911-8.4873 0-4.8035 1.7911-8.4671 1.8115-3.6636 5.0477-5.7193 3.2565-2.0557 7.6122-2.0557 2.6459 0 5.129 0.8752 2.4832 0.8752 4.4575 2.7477 1.9742 1.8725 3.114 4.8645 1.1398 2.9716 1.1398 7.2255v2.1574h-24.852v-4.5591h18.888q0-2.4017-0.977-4.2539-0.977-1.8725-2.7477-2.9513-1.7504-1.0787-4.1114-1.0787-2.5645 0-4.4778 1.2619-1.8928 1.2416-2.9309 3.2566-1.0176 1.9946-1.0176 4.3353v3.5618q0 3.1344 1.099 5.3326 1.1195 2.1982 3.1141 3.3583 1.9947 1.1398 4.661 1.1398 1.73 0 3.1547-0.4885 1.4248-0.5088 2.4628-1.5061t1.5876-2.4628l5.76 1.0381q-0.692 2.5441-2.4831 4.4574-1.7708 1.8928-4.4574 2.9512-2.6663 1.038-6.0857 1.038z"/><path d="m2040.5 3786.4q-4.5388 0-7.8157-2.0557-3.2565-2.076-5.0069-5.7193t-1.7504-8.3449q0-4.7627 1.7911-8.406 1.7911-3.6636 5.0476-5.7193 3.2566-2.0557 7.6733-2.0557 3.5618 0 6.3503 1.323 2.7884 1.3026 4.4981 3.6636 1.73 2.361 2.0557 5.5158h-5.9229q-0.4885-2.1982-2.2389-3.7857-1.73-1.5876-4.6406-1.5876-2.5441 0-4.4574 1.3433-1.8928 1.323-2.9512 3.7857-1.0584 2.4425-1.0584 5.7804 0 3.4194 1.038 5.9025 1.0381 2.4831 2.9309 3.8468 1.9133 1.3637 4.4981 1.3637 1.7301 0 3.1345-0.6309 1.4247-0.6514 2.3813-1.8522 0.977-1.2009 1.3637-2.8902h5.9229q-0.3257 3.0327-1.9743 5.414-1.6486 2.3814-4.4167 3.745-2.7477 1.3637-6.4521 1.3637z"/><path d="m2096.2 3767.5v5.2716h-16.934v-5.2716zm-15.224-13.006v31.263h-5.9636v-31.263zm19.478 0v31.263h-5.9433v-31.263z"/><path d="m2117.7 3786.4q-2.9716 0-5.3733-1.0991-2.4017-1.1194-3.8061-3.2362-1.384-2.1168-1.384-5.1901 0-2.646 1.0176-4.3557 1.0177-1.7096 2.7478-2.707 1.73-0.9973 3.8671-1.5061 2.1371-0.5089 4.3556-0.7735 2.8088-0.3256 4.5592-0.5291 1.7504-0.2239 2.5442-0.7124t0.7938-1.5876v-0.1425q0-2.6663-1.5062-4.1317-1.4858-1.4655-4.437-1.4655-3.0734 0-4.8441 1.3637-1.7504 1.3434-2.4221 2.992l-5.7193-1.3026q1.0176-2.8495 2.9716-4.5999 1.9743-1.7708 4.5388-2.5645 2.5645-0.8142 5.3937-0.8142 1.8725 0 3.9689 0.4478 2.1167 0.4274 3.9486 1.5876 1.8521 1.1601 3.0326 3.3176 1.1805 2.1371 1.1805 5.5565v20.76h-5.9432v-4.2742h-0.2442q-0.5903 1.1805-1.7708 2.3202-1.1805 1.1398-3.0326 1.8929-1.8522 0.7531-4.4371 0.7531zm1.323-4.8848q2.5238 0 4.3149-0.9974 1.8115-0.9973 2.7477-2.6052 0.9566-1.6283 0.9566-3.4804v-4.03q-0.3256 0.3256-1.2619 0.6106-0.9159 0.2646-2.0964 0.4681-1.1805 0.1832-2.2999 0.346-1.1195 0.1425-1.8725 0.2443-1.7708 0.2239-3.2362 0.753-1.4451 0.5292-2.3203 1.5266-0.8549 0.9769-0.8549 2.6052 0 2.2592 1.669 3.4194 1.669 1.1398 4.2539 1.1398z"/><path d="m2158.8 3778.2 10.095-23.732h5.2512l-13.087 31.263h-4.5184l-12.823-31.263h5.1901zm-11.581-23.732v31.263h-5.9636v-31.263zm23.325 31.263v-31.263h5.9229v31.263z"/><path d="m2190.5 3777.2 13.779-22.735h6.5538v31.263h-5.9635v-22.755l-13.718 22.755h-6.6149v-31.263h5.9636z"/></g><g transform="matrix(.50313 0 0 .50313 1017.6 2061.4)" fill="#fff" stop-color="#000000" stroke-linecap="round" stroke-linejoin="round" stroke-width="19.674" style="shape-inside:url(#rect5574);white-space:pre" aria-label="Информация в сообществах"><path d="m1815.7 3743.2h5.7595v28.308h0.3576l19.612-28.308h5.383v38.547h-5.8159v-28.27h-0.3576l-19.575 28.27h-5.3642z"/><path d="m1874.4 3764.9v4.8748h-15.66v-4.8748zm-14.079-12.027v28.91h-5.5147v-28.91zm18.012 0v28.91h-5.4959v-28.91z"/><path d="m1898.3 3791.6v-48.391h5.6277v48.391zm0-9.2603q-3.0679 0-5.59-1.054-2.5221-1.0728-4.3478-3.0491t-2.8233-4.7243q-0.9787-2.7479-0.9787-6.0794 0-3.369 0.9787-6.117 0.9976-2.748 2.8233-4.7243 1.8257-1.9762 4.3478-3.0491 2.5221-1.0728 5.59-1.0728h1.3928v29.87zm0-4.743h0.7905v-20.384h-0.7905q-2.0327 0-3.5385 0.8281-1.5057 0.8093-2.5032 2.2398-0.9976 1.4116-1.5058 3.2562-0.4893 1.8445-0.4893 3.896 0 2.748 0.8846 5.0631 0.8846 2.2962 2.6727 3.7079 1.788 1.3928 4.4795 1.3928zm5.6277 4.743h-1.4116v-29.87h1.4116q3.068 0 5.5901 1.0728 2.5221 1.0729 4.329 3.0491 1.8257 1.9763 2.8044 4.7243 0.9975 2.748 0.9975 6.117 0 3.3315-0.9975 6.0794-0.9787 2.748-2.8044 4.7243-1.8069 1.9763-4.329 3.0491-2.5221 1.054-5.5901 1.054zm0-4.743q2.0328 0 3.5385-0.7906 1.5057-0.8093 2.5033-2.2209 0.9975-1.4305 1.4869-3.2562 0.4894-1.8445 0.4894-3.8961 0-2.7291-0.8847-5.0442-0.8658-2.3339-2.6538-3.7455-1.7881-1.4304-4.4796-1.4304h-0.8093v20.384z"/><path d="m1936.1 3782.3q-4.0655 0-7.0957-1.8633-3.0303-1.8634-4.7055-5.2136-1.6751-3.3503-1.6751-7.8299 0-4.4983 1.6751-7.8674 1.6752-3.3691 4.7055-5.2325 3.0302-1.8633 7.0957-1.8633t7.0958 1.8633q3.0303 1.8634 4.7054 5.2325 1.6752 3.3691 1.6752 7.8674 0 4.4796-1.6752 7.8299-1.6751 3.3502-4.7054 5.2136-3.0303 1.8633-7.0958 1.8633zm0.019-4.7242q2.635 0 4.3666-1.3928t2.5597-3.7079q0.847-2.3151 0.847-5.1007 0-2.7668-0.847-5.0818-0.8281-2.3339-2.5597-3.7456-1.7316-1.4116-4.3666-1.4116-2.6539 0-4.4043 1.4116-1.7316 1.4117-2.5786 3.7456-0.8281 2.315-0.8281 5.0818 0 2.7856 0.8281 5.1007 0.847 2.3151 2.5786 3.7079 1.7504 1.3928 4.4043 1.3928z"/><path d="m1955.8 3792.6v-39.752h5.4959v4.6866h0.4705q0.4894-0.9034 1.4117-2.0892 0.9222-1.1857 2.5597-2.0704 1.6375-0.9034 4.329-0.9034 3.5008 0 6.2488 1.7692 2.748 1.7693 4.3102 5.1007 1.581 3.3315 1.581 8.0181t-1.5622 8.0368q-1.5622 3.3315-4.2913 5.1383-2.7292 1.7881-6.23 1.7881-2.6351 0-4.3102-0.8846-1.6563-0.8846-2.5974-2.0704t-1.4493-2.108h-0.3387v15.34zm5.5147-25.296q0 3.0491 0.8846 5.3454 0.8847 2.2962 2.5598 3.5949 1.6751 1.2799 4.1031 1.2799 2.5221 0 4.2161-1.3364 1.6939-1.3551 2.5597-3.6702 0.8847-2.3151 0.8847-5.2136 0-2.8609-0.8658-5.1383-0.847-2.2775-2.5598-3.595-1.6939-1.3175-4.2349-1.3175-2.4468 0-4.1407 1.2611-1.6752 1.261-2.541 3.5196t-0.8658 5.2701z"/><path d="m2004.8 3774.8 9.3355-21.946h4.856l-12.102 28.91h-4.1784l-11.858-28.91h4.7995zm-10.71-21.946v28.91h-5.5147v-28.91zm21.57 28.91v-28.91h5.4771v28.91z"/><path d="m2037 3782.4q-2.748 0-4.969-1.0164-2.2209-1.0352-3.5196-2.9926-1.2799-1.9575-1.2799-4.7996 0-2.4468 0.9411-4.0278t2.5409-2.5033q1.5999-0.9223 3.5761-1.3928 1.9763-0.4705 4.0279-0.7152 2.5974-0.3012 4.216-0.4894 1.6187-0.207 2.3527-0.6587 0.7341-0.4518 0.7341-1.4681v-0.1318q0-2.4656-1.3928-3.8208-1.374-1.3552-4.1031-1.3552-2.8421 0-4.4796 1.2611-1.6187 1.2422-2.2398 2.7668l-5.2889-1.2046q0.9411-2.635 2.748-4.2537 1.8257-1.6375 4.1972-2.3715 2.3716-0.7529 4.9878-0.7529 1.7316 0 3.6702 0.4141 1.9575 0.3952 3.6514 1.4681 1.7128 1.0728 2.8044 3.0679 1.0917 1.9763 1.0917 5.1383v19.198h-5.4959v-3.9526h-0.2259q-0.5458 1.0917-1.6375 2.1457-1.0916 1.054-2.8044 1.7504t-4.1031 0.6964zm1.2234-4.5172q2.3339 0 3.9902-0.9223 1.6751-0.9222 2.5409-2.4092 0.8846-1.5057 0.8846-3.2185v-3.7267q-0.3011 0.3012-1.1669 0.5647-0.847 0.2447-1.9387 0.4329-1.0916 0.1694-2.1268 0.32-1.0352 0.1317-1.7316 0.2258-1.6375 0.2071-2.9927 0.6964-1.3363 0.4894-2.1456 1.4116-0.7905 0.9035-0.7905 2.4092 0 2.0892 1.5433 3.1621 1.5434 1.054 3.9338 1.054z"/><path d="m2082.4 3752.8v24.299h4.2349v13.928h-5.5524v-9.3167h-22.266v-28.91h5.5147v24.054h12.573v-24.054z"/><path d="m2098.4 3773.9 12.742-21.024h6.0606v28.91h-5.5148v-21.043l-12.686 21.043h-6.1171v-28.91h5.5148z"/><path d="m2142 3781.7v-24.111h-6.9264q-2.4656 0-3.8396 1.1481t-1.374 3.0115q0 1.8445 1.261 2.9738 1.2799 1.1105 3.5762 1.1105h8.9403v4.5548h-8.9403q-3.1997 0-5.5336-1.054-2.3151-1.0728-3.5761-3.0303-1.2423-1.9575-1.2423-4.6301 0-2.7292 1.2799-4.7055 1.2987-1.9951 3.7079-3.0867 2.428-1.0917 5.7406-1.0917h12.215v28.91zm-18.972 0 8.1498-14.606h5.7594l-8.1498 14.606z"/><path d="m2168.8 3781.7v-28.91h11.989q4.8936 0 7.7545 2.0892 2.8609 2.0704 2.8609 5.6277 0 2.541-1.6187 4.0279-1.6186 1.4869-4.2913 1.9951 1.9386 0.2258 3.5573 1.1669 1.6187 0.9223 2.5974 2.4845 0.9975 1.5622 0.9975 3.7267 0 2.2962-1.1857 4.0655-1.1858 1.7504-3.4444 2.7479-2.2398 0.9788-5.4018 0.9788zm5.2888-4.7055h8.5263q2.0892 0 3.275-0.9975 1.1857-0.9976 1.1857-2.7103 0-2.014-1.1857-3.1621-1.1858-1.1669-3.275-1.1669h-8.5263zm0-12.159h6.757q1.5811 0 2.7104-0.4517 1.1481-0.4517 1.7504-1.2799 0.6211-0.847 0.6211-1.9951 0-1.6751-1.374-2.6162t-3.7643-0.9411h-6.7006z"/><path d="m2225 3782.3q-4.1972 0-7.2275-1.901-3.0115-1.9198-4.6302-5.2889-1.6186-3.369-1.6186-7.7169 0-4.4042 1.6563-7.7733 1.6563-3.3879 4.6678-5.2889 3.0114-1.901 7.0957-1.901 3.2938 0 5.8724 1.2234 2.5786 1.2046 4.1596 3.3879 1.5998 2.1833 1.901 5.1007h-5.4771q-0.4517-2.0328-2.0704-3.5008-1.5998-1.4681-4.2914-1.4681-2.3527 0-4.1219 1.2422-1.7504 1.2234-2.7291 3.5008-0.9788 2.2586-0.9788 5.3454 0 3.162 0.9599 5.4583 0.9599 2.2962 2.7104 3.5573 1.7692 1.261 4.1595 1.261 1.5999 0 2.8986-0.5834 1.3175-0.6023 2.2021-1.7128 0.9035-1.1105 1.2611-2.6727h5.4771q-0.3012 2.8044-1.8257 5.0066-1.5246 2.2021-4.0843 3.4632-2.5409 1.261-5.9665 1.261z"/><path d="m2255.1 3782.3q-4.0655 0-7.0958-1.8633-3.0303-1.8634-4.7054-5.2136-1.6751-3.3503-1.6751-7.8299 0-4.4983 1.6751-7.8674t4.7054-5.2325q3.0303-1.8633 7.0958-1.8633t7.0958 1.8633q3.0303 1.8634 4.7054 5.2325 1.6752 3.3691 1.6752 7.8674 0 4.4796-1.6752 7.8299-1.6751 3.3502-4.7054 5.2136-3.0303 1.8633-7.0958 1.8633zm0.019-4.7242q2.6351 0 4.3667-1.3928t2.5597-3.7079q0.847-2.3151 0.847-5.1007 0-2.7668-0.847-5.0818-0.8281-2.3339-2.5597-3.7456-1.7316-1.4116-4.3667-1.4116-2.6538 0-4.4042 1.4116-1.7316 1.4117-2.5786 3.7456-0.8282 2.315-0.8282 5.0818 0 2.7856 0.8282 5.1007 0.847 2.3151 2.5786 3.7079 1.7504 1.3928 4.4042 1.3928z"/><path d="m2287 3782.3q-4.0655 0-7.0958-1.8633-3.0303-1.8634-4.7054-5.2136-1.6751-3.3503-1.6751-7.8299 0-4.4983 1.6751-7.8674t4.7054-5.2325q3.0303-1.8633 7.0958-1.8633t7.0958 1.8633q3.0303 1.8634 4.7054 5.2325t1.6751 7.8674q0 4.4796-1.6751 7.8299-1.6751 3.3502-4.7054 5.2136-3.0303 1.8633-7.0958 1.8633zm0.019-4.7242q2.6351 0 4.3666-1.3928 1.7316-1.3928 2.5598-3.7079 0.847-2.3151 0.847-5.1007 0-2.7668-0.847-5.0818-0.8282-2.3339-2.5598-3.7456-1.7315-1.4116-4.3666-1.4116-2.6538 0-4.4043 1.4116-1.7316 1.4117-2.5785 3.7456-0.8282 2.315-0.8282 5.0818 0 2.7856 0.8282 5.1007 0.8469 2.3151 2.5785 3.7079 1.7505 1.3928 4.4043 1.3928z"/><path d="m2329.1 3742.1 2.3339 3.5573q-1.2987 1.1858-2.955 1.694-1.6375 0.4893-3.7831 0.6211-2.1457 0.1129-4.9125 0.207-3.1244 0.094-5.1383 1.3552-2.014 1.2422-3.1056 3.689-1.0728 2.428-1.3928 6.0983h0.3576q1.4116-2.6915 3.9149-4.0279 2.5221-1.3363 5.6653-1.3363 3.5009 0 6.23 1.5998 2.7292 1.5999 4.2914 4.6866 1.581 3.068 1.581 7.5099 0 4.4984-1.6563 7.7733-1.6375 3.275-4.6302 5.0631-2.9738 1.7692-7.0204 1.7692-4.0467 0-7.0582-1.8257-2.9926-1.8445-4.6489-5.4583-1.6375-3.6137-1.6375-8.9215v-2.8609q0-9.919 3.5384-14.926 3.5385-5.0065 10.578-5.1383 2.2775-0.056 4.0655-0.019 1.7881 0.019 3.1244-0.1694 1.3552-0.207 2.2586-0.9411zm-10.201 35.535q2.3527 0 4.0466-1.1858 1.7128-1.2046 2.6351-3.4067 0.9222-2.2022 0.9222-5.1948 0-2.9362-0.9222-4.9878-0.9223-2.0515-2.6351-3.1244-1.7127-1.0916-4.1031-1.0916-1.7692 0-3.162 0.6211-1.3928 0.6023-2.3904 1.7881-0.9787 1.1857-1.5245 2.8985-0.5271 1.694-0.5647 3.8961 0 4.4796 2.0516 7.1334 2.0704 2.6539 5.6465 2.6539z"/><path d="m2379.9 3776.9-0.527 13.138h-5.5148v-8.2815h-3.595v-4.856zm-41.427-24.054h5.5148v24.035h9.9943v-24.035h5.5147v24.035h9.9944v-24.035h5.5147v28.91h-36.533z"/><path d="m2398 3782.3q-4.2726 0-7.3593-1.8257-3.068-1.8445-4.7431-5.1759-1.6563-3.3503-1.6563-7.8487 0-4.4419 1.6563-7.8298 1.6751-3.3879 4.6678-5.2889 3.0115-1.901 7.0393-1.901 2.4468 0 4.7431 0.8093 2.2962 0.8094 4.1219 2.541t2.8797 4.4983q1.0541 2.748 1.0541 6.6817v1.9951h-22.981v-4.216h17.466q0-2.221-0.9034-3.9338-0.9035-1.7315-2.541-2.7291-1.6186-0.9975-3.8019-0.9975-2.3716 0-4.1408 1.1669-1.7504 1.1481-2.7103 3.0115-0.9411 1.8445-0.9411 4.009v3.2938q0 2.8985 1.0163 4.9313 1.0352 2.0327 2.8798 3.1056 1.8445 1.054 4.3101 1.054 1.5999 0 2.9174-0.4518 1.3175-0.4705 2.2774-1.3928 0.9599-0.9222 1.4681-2.2774l5.3266 0.9599q-0.64 2.3527-2.2963 4.122-1.6375 1.7504-4.1219 2.7291-2.4657 0.9599-5.6277 0.9599z"/><path d="m2428.8 3782.3q-4.1972 0-7.2275-1.901-3.0115-1.9198-4.6301-5.2889-1.6187-3.369-1.6187-7.7169 0-4.4042 1.6563-7.7733 1.6563-3.3879 4.6678-5.2889t7.0958-1.901q3.2938 0 5.8723 1.2234 2.5786 1.2046 4.1596 3.3879 1.5999 2.1833 1.901 5.1007h-5.4771q-0.4517-2.0328-2.0704-3.5008-1.5998-1.4681-4.2913-1.4681-2.3527 0-4.122 1.2422-1.7504 1.2234-2.7291 3.5008-0.9787 2.2586-0.9787 5.3454 0 3.162 0.9599 5.4583 0.9599 2.2962 2.7103 3.5573 1.7692 1.261 4.1596 1.261 1.5998 0 2.8985-0.5834 1.3175-0.6023 2.2022-1.7128 0.9034-1.1105 1.261-2.6727h5.4771q-0.3011 2.8044-1.8257 5.0066-1.5245 2.2021-4.0843 3.4632-2.5409 1.261-5.9665 1.261z"/><path d="m2444.6 3757.7v-4.856h24.393v4.856h-9.4297v24.054h-5.496v-24.054z"/><path d="m2474.9 3781.7v-28.91h11.989q4.8936 0 7.7545 2.0892 2.8609 2.0704 2.8609 5.6277 0 2.541-1.6186 4.0279-1.6187 1.4869-4.2914 1.9951 1.9386 0.2258 3.5573 1.1669 1.6187 0.9223 2.5974 2.4845 0.9976 1.5622 0.9976 3.7267 0 2.2962-1.1858 4.0655-1.1858 1.7504-3.4444 2.7479-2.2398 0.9788-5.4018 0.9788zm5.2889-4.7055h8.5262q2.0892 0 3.275-0.9975 1.1857-0.9976 1.1857-2.7103 0-2.014-1.1857-3.1621-1.1858-1.1669-3.275-1.1669h-8.5262zm0-12.159h6.7569q1.5811 0 2.7104-0.4517 1.1481-0.4517 1.7504-1.2799 0.6211-0.847 0.6211-1.9951 0-1.6751-1.374-2.6162t-3.7643-0.9411h-6.7005z"/><path d="m2513.3 3782.4q-2.7479 0-4.9689-1.0164-2.221-1.0352-3.5197-2.9926-1.2798-1.9575-1.2798-4.7996 0-2.4468 0.9411-4.0278 0.941-1.581 2.5409-2.5033 1.5998-0.9223 3.5761-1.3928t4.0278-0.7152q2.5974-0.3012 4.2161-0.4894 1.6187-0.207 2.3527-0.6587 0.7341-0.4518 0.7341-1.4681v-0.1318q0-2.4656-1.3928-3.8208-1.374-1.3552-4.1032-1.3552-2.842 0-4.4795 1.2611-1.6187 1.2422-2.2398 2.7668l-5.2889-1.2046q0.9411-2.635 2.748-4.2537 1.8257-1.6375 4.1972-2.3715 2.3715-0.7529 4.9877-0.7529 1.7316 0 3.6703 0.4141 1.9574 0.3952 3.6514 1.4681 1.7128 1.0728 2.8044 3.0679 1.0917 1.9763 1.0917 5.1383v19.198h-5.496v-3.9526h-0.2258q-0.5458 1.0917-1.6375 2.1457t-2.8044 1.7504q-1.7128 0.6964-4.1032 0.6964zm1.2234-4.5172q2.3339 0 3.9902-0.9223 1.6752-0.9222 2.541-2.4092 0.8846-1.5057 0.8846-3.2185v-3.7267q-0.3012 0.3012-1.167 0.5647-0.8469 0.2447-1.9386 0.4329-1.0916 0.1694-2.1268 0.32-1.0352 0.1317-1.7316 0.2258-1.6375 0.2071-2.9927 0.6964-1.3363 0.4894-2.1457 1.4116-0.7905 0.9035-0.7905 2.4092 0 2.0892 1.5434 3.1621 1.5434 1.054 3.9337 1.054z"/><path d="m2539.5 3752.8 6.3806 11.255 6.437-11.255h6.1547l-9.0156 14.455 9.0909 14.455h-6.1547l-6.5123-10.804-6.4935 10.804h-6.1736l8.9968-14.455-8.8838-14.455z"/></g><g transform="matrix(2.1984 0 0 2.1984 -1947.3 -4797.5)" fill="#fff" stop-color="#000000" stroke-linecap="round" stroke-linejoin="round" stroke-width="4.5026" style="shape-inside:url(#rect7044);white-space:pre" aria-label="#blago"><path d="m1818.4 3752.3 2.5328-15.438h3.0153l-2.5328 15.438zm-6.8447-3.5278 0.5126-3.0153h12.423l-0.5126 3.0153zm1.4172 3.5278 2.5329-15.438h3.0152l-2.5328 15.438zm-0.5427-8.895 0.5126-3.0153h12.423l-0.5126 3.0153z"/><path d="m1826.5 3752.3v-15.438h4.1611v5.8798h0.06q0.2262-0.588 0.6634-1.0779 0.4372-0.4976 1.0855-0.7916 0.6483-0.3015 1.5076-0.3015 1.1458 0 2.1785 0.6106 1.0403 0.6106 1.6886 1.9222 0.6558 1.3117 0.6558 3.4073 0 2.0052-0.6257 3.3243-0.6181 1.3192-1.6584 1.9675-1.0327 0.6483-2.2689 0.6483-0.8142 0-1.4549-0.2639-0.6332-0.2713-1.0855-0.7312-0.4448-0.4673-0.686-1.0553h-0.09v1.8996zm4.0707-5.7893q0 0.8443 0.2186 1.4624 0.2261 0.6106 0.6332 0.9498 0.4146 0.3317 0.9875 0.3317t0.9724-0.3241q0.4071-0.3317 0.6181-0.9423 0.2186-0.6181 0.2186-1.4775t-0.2186-1.4699q-0.211-0.6182-0.6181-0.9423-0.3995-0.3317-0.9724-0.3317t-0.9875 0.3317q-0.4071 0.3241-0.6332 0.9423-0.2186 0.6105-0.2186 1.4699z"/><path d="m1844.4 3736.9v15.438h-4.161v-15.438z"/><path d="m1849.8 3752.5q-1.1082 0-1.96-0.3618-0.8443-0.3694-1.3267-1.1156-0.4824-0.7463-0.4824-1.8997 0-0.9498 0.3241-1.6207 0.3241-0.6784 0.9046-1.1081 0.5804-0.4297 1.3493-0.6558 0.7765-0.2262 1.6735-0.294 0.9724-0.075 1.5604-0.1809 0.5955-0.1131 0.8593-0.3091 0.2639-0.2035 0.2639-0.5352v-0.03q0-0.4523-0.3468-0.6936-0.3467-0.2412-0.8895-0.2412-0.5955 0-0.9724 0.2639-0.3694 0.2563-0.4448 0.7915h-3.8293q0.075-1.0554 0.6709-1.9449 0.603-0.897 1.7563-1.4322 1.1534-0.5428 2.8796-0.5428 1.2438 0 2.2313 0.294 0.9875 0.2865 1.681 0.8066 0.6936 0.5126 1.0554 1.2061 0.3694 0.686 0.3694 1.4926v7.9301h-3.8897v-1.6282h-0.091q-0.3468 0.6483-0.8443 1.0478-0.49 0.3995-1.1232 0.5804-0.6256 0.1809-1.3794 0.1809zm1.3568-2.6233q0.4749 0 0.8895-0.1959 0.4222-0.196 0.686-0.5654t0.2638-0.8971v-0.9648q-0.1658 0.068-0.3543 0.1281-0.1809 0.06-0.3919 0.1131-0.2036 0.053-0.4373 0.098-0.2261 0.045-0.4749 0.083-0.4824 0.075-0.7915 0.2488-0.3015 0.1658-0.4523 0.4146-0.1432 0.2412-0.1432 0.5427 0 0.4825 0.3392 0.7388 0.3393 0.2562 0.8669 0.2562z"/><path d="m1864.7 3756.9q-1.7413 0-2.9851-0.4975-1.2363-0.49-1.9222-1.3569-0.6785-0.8593-0.7614-1.975h4.0103q0.06 0.3694 0.3015 0.5956 0.2413 0.2261 0.6182 0.3241 0.3844 0.1055 0.8593 0.1055 0.8066 0 1.3343-0.392 0.5352-0.3919 0.5352-1.4171v-1.96h-0.1206q-0.2262 0.588-0.6935 1.0026-0.4674 0.4071-1.1232 0.6257-0.6559 0.2111-1.4398 0.2111-1.2363 0-2.2766-0.5729-1.0327-0.5729-1.6583-1.8167-0.6182-1.2438-0.6182-3.249 0-2.0956 0.6483-3.4073 0.6558-1.3116 1.6886-1.9222 1.0402-0.6106 2.186-0.6106 0.8594 0 1.5077 0.3015 0.6482 0.294 1.0855 0.7916 0.4372 0.4899 0.6633 1.0779h0.09v-2.0202h4.161v11.548q0 1.4699-0.7613 2.4951-0.7538 1.0327-2.1258 1.5755-1.3719 0.5427-3.2037 0.5427zm0.1508-7.6889q0.5729 0 0.9799-0.3166 0.4146-0.3242 0.6332-0.9197 0.2262-0.603 0.2262-1.4473 0-0.8594-0.2262-1.4699-0.2186-0.6182-0.6332-0.9423-0.407-0.3317-0.9799-0.3317t-0.98 0.3317q-0.3995 0.3241-0.6181 0.9423-0.2111 0.6105-0.2111 1.4699t0.2111 1.4624q0.2186 0.5955 0.6181 0.9121 0.4071 0.3091 0.98 0.3091z"/><path d="m1878.4 3752.6q-1.8846 0-3.2264-0.7463-1.3418-0.7538-2.0579-2.0956-0.7161-1.3493-0.7161-3.1283 0-1.7791 0.7161-3.1209 0.7161-1.3493 2.0579-2.0956 1.3418-0.7538 3.2264-0.7538 1.8845 0 3.2263 0.7538 1.3418 0.7463 2.0579 2.0956 0.7162 1.3418 0.7162 3.1209 0 1.779-0.7162 3.1283-0.7161 1.3418-2.0579 2.0956-1.3418 0.7463-3.2263 0.7463zm0.03-3.0756q0.5277 0 0.9121-0.3543 0.3845-0.3543 0.5956-1.0101 0.211-0.6558 0.211-1.5604 0-0.9121-0.211-1.5604-0.2111-0.6558-0.5956-1.0101-0.3844-0.3543-0.9121-0.3543-0.5578 0-0.9573 0.3543t-0.6106 1.0101q-0.2111 0.6483-0.2111 1.5604 0 0.9046 0.2111 1.5604t0.6106 1.0101 0.9573 0.3543z"/></g><g fill="#fff" stroke-linecap="round" stroke-linejoin="round"><g transform="matrix(1.2165 0 0 1.2165 -374.3 -850.94)" stop-color="#000000" stroke-width="8.1368" style="shape-inside:url(#rect4730);white-space:pre" aria-label="на TON "><path d="m1869.2 3808.6v19.242h-36.056v-19.242zm-26.902-25.968v71.739h-24.287v-71.739zm42.035 0v71.739h-24.1v-71.739z"/><path d="m1916.6 3855.5q-6.8656 0-12.143-2.2418-5.231-2.2886-8.2202-6.9124-2.9891-4.6238-2.9891-11.77 0-5.8849 2.0083-10.042 2.0084-4.2035 5.6047-6.8657t8.3602-4.0634q4.8106-1.4011 10.369-1.8215 6.0249-0.467 9.668-1.1209 3.6897-0.7006 5.3244-1.9149 1.6346-1.2611 1.6346-3.3161v-0.1868q0-2.8023-2.1484-4.2969t-5.5112-1.4946q-3.6897 0-6.025 1.6347-2.2886 1.588-2.7556 4.9041h-23.726q0.4671-6.5388 4.1568-12.05 3.7364-5.5579 10.882-8.874 7.1459-3.3628 17.841-3.3628 7.7064 0 13.825 1.8215 6.1184 1.7748 10.415 4.9975 4.2969 3.176 6.5388 7.4728 2.2885 4.2502 2.2885 9.2477v49.134h-24.1v-10.088h-0.5604q-2.1485 4.0166-5.231 6.492-3.0359 2.4754-6.9591 3.5963-3.8765 1.1209-8.5471 1.1209zm8.407-16.253q2.9424 0 5.5112-1.2143 2.6155-1.2144 4.2502-3.5029 1.6347-2.2886 1.6347-5.5579v-5.9783q-1.0276 0.4203-2.1952 0.794-1.1209 0.3736-2.4287 0.7005-1.261 0.327-2.7089 0.6072-1.4011 0.2802-2.9424 0.5138-2.9891 0.467-4.9041 1.5412-1.8682 1.0276-2.8023 2.5688-0.8874 1.4946-0.8874 3.3628 0 2.9892 2.1018 4.5771 2.1017 1.588 5.3711 1.588z"/><path d="m1997.5 3779.7v-20.924h83.135v20.924h-28.77v74.728h-25.594v-74.728z"/><path d="m2178.6 3806.6q0 15.973-6.2118 26.949-6.2118 10.929-16.767 16.58-10.555 5.6047-23.539 5.6047-13.078 0-23.633-5.6514-10.509-5.698-16.72-16.627-6.1651-10.976-6.1651-26.856 0-15.973 6.1651-26.902 6.2118-10.976 16.72-16.58 10.555-5.6513 23.633-5.6513 12.984 0 23.539 5.6513 10.555 5.6047 16.767 16.58 6.2118 10.929 6.2118 26.902zm-26.715 0q0-8.5937-2.2886-14.479-2.2418-5.9316-6.6788-8.9674-4.3903-3.0826-10.836-3.0826-6.4454 0-10.882 3.0826-4.3902 3.0358-6.6788 8.9674-2.2419 5.8849-2.2419 14.479 0 8.5938 2.2419 14.525 2.2886 5.8848 6.6788 8.9674 4.437 3.0358 10.882 3.0358 6.4453 0 10.836-3.0358 4.437-3.0826 6.6788-8.9674 2.2886-5.9316 2.2886-14.525z"/><path d="m2273.3 3758.8v95.652h-21.671l-34.562-50.255h-0.5605v50.255h-25.968v-95.652h22.045l34.001 50.068h0.7473v-50.068z"/></g><g transform="matrix(2.1984 0 0 2.1984 -2073.4 -4617.5)" stop-color="#000000" stroke-width="4.5026" style="shape-inside:url(#rect5586);white-space:pre" aria-label="ДАО Градосфера"><path d="m1811.9 3756v-6.9351h1.0855q0.5427-0.3317 0.9799-0.9348 0.4448-0.603 0.7539-1.7262 0.3166-1.1232 0.4673-3.0077l0.5126-6.5432h10.915v12.212h1.6282v6.9351h-4.0404v-3.7088h-8.2619v3.7088zm5.8798-6.9351h4.7942v-8.8348h-3.1057l-0.2412 3.1661q-0.1055 1.4171-0.3242 2.48-0.211 1.0554-0.505 1.8393-0.2865 0.7765-0.6181 1.3494z"/><path d="m1833.7 3752.3h-4.5229l5.0958-15.438h5.729l5.0959 15.438h-4.523l-3.3771-11.187h-0.1206zm-0.8442-6.0908h8.503v3.1359h-8.503z"/><path d="m1860.8 3744.6q0 2.5781-1.0026 4.3496-1.0025 1.7639-2.7062 2.676-1.7036 0.9046-3.7992 0.9046-2.1107 0-3.8143-0.9121-1.6961-0.9197-2.6987-2.6836-0.995-1.7715-0.995-4.3345 0-2.578 0.995-4.342 1.0026-1.7714 2.6987-2.676 1.7036-0.9121 3.8143-0.9121 2.0956 0 3.7992 0.9121 1.7037 0.9046 2.7062 2.676 1.0026 1.764 1.0026 4.342zm-4.3118 0q0-1.387-0.3694-2.3368-0.3618-0.9574-1.078-1.4473-0.7085-0.4976-1.7488-0.4976t-1.7564 0.4976q-0.7086 0.4899-1.078 1.4473-0.3618 0.9498-0.3618 2.3368t0.3618 2.3444q0.3694 0.9498 1.078 1.4473 0.7161 0.49 1.7564 0.49t1.7488-0.49q0.7162-0.4975 1.078-1.4473 0.3694-0.9574 0.3694-2.3444z"/><path d="m1877.8 3736.9v3.3771h-6.6637v12.061h-4.1912v-15.438z"/><path d="m1878.2 3756.7v-15.921h4.1309v2.0202h0.091q0.2261-0.588 0.6633-1.0779 0.4372-0.4976 1.0855-0.7916 0.6483-0.3015 1.5077-0.3015 1.1458 0 2.1785 0.6106 1.0403 0.6106 1.6885 1.9222 0.6559 1.3117 0.6559 3.4073 0 2.0052-0.6257 3.3243-0.6181 1.3192-1.6584 1.9675-1.0327 0.6483-2.269 0.6483-0.8141 0-1.4549-0.2639-0.6332-0.2713-1.0855-0.7312-0.4447-0.4673-0.6859-1.0553h-0.06v6.2416zm4.0706-10.131q0 0.8443 0.2186 1.4624 0.2262 0.6106 0.6332 0.9498 0.4146 0.3317 0.9875 0.3317t0.9724-0.3241q0.4071-0.3317 0.6182-0.9423 0.2186-0.6181 0.2186-1.4775t-0.2186-1.4699q-0.2111-0.6182-0.6182-0.9423-0.3995-0.3317-0.9724-0.3317t-0.9875 0.3317q-0.407 0.3241-0.6332 0.9423-0.2186 0.6105-0.2186 1.4699z"/><path d="m1895.2 3752.5q-1.1081 0-1.96-0.3618-0.8442-0.3694-1.3267-1.1156-0.4824-0.7463-0.4824-1.8997 0-0.9498 0.3241-1.6207 0.3242-0.6784 0.9046-1.1081t1.3493-0.6558q0.7765-0.2262 1.6735-0.294 0.9724-0.075 1.5604-0.1809 0.5955-0.1131 0.8594-0.3091 0.2638-0.2035 0.2638-0.5352v-0.03q0-0.4523-0.3468-0.6936-0.3467-0.2412-0.8895-0.2412-0.5955 0-0.9724 0.2639-0.3693 0.2563-0.4447 0.7915h-3.8294q0.075-1.0554 0.6709-1.9449 0.603-0.897 1.7564-1.4322 1.1533-0.5428 2.8796-0.5428 1.2437 0 2.2313 0.294 0.9875 0.2865 1.681 0.8066 0.6935 0.5126 1.0553 1.2061 0.3694 0.686 0.3694 1.4926v7.9301h-3.8897v-1.6282h-0.091q-0.3467 0.6483-0.8443 1.0478-0.4899 0.3995-1.1231 0.5804-0.6257 0.1809-1.3795 0.1809zm1.3568-2.6233q0.4749 0 0.8895-0.1959 0.4222-0.196 0.686-0.5654 0.2639-0.3694 0.2639-0.8971v-0.9648q-0.1659 0.068-0.3543 0.1281-0.181 0.06-0.392 0.1131-0.2036 0.053-0.4372 0.098-0.2262 0.045-0.4749 0.083-0.4825 0.075-0.7915 0.2488-0.3016 0.1658-0.4523 0.4146-0.1433 0.2412-0.1433 0.5427 0 0.4825 0.3393 0.7388 0.3392 0.2562 0.8668 0.2562z"/><path d="m1903.8 3755.8v-6.5733h0.8442q0.3996-0.1583 0.6257-0.7462 0.2337-0.5956 0.3543-1.3946 0.1282-0.7991 0.1809-1.6132 0.06-0.8216 0.1056-1.4322l0.2412-3.2565h9.8901v8.4427h1.8091v6.5733h-3.9198v-3.4374h-6.0909v3.4374zm4.8244-6.5733h3.558v-5.4275h-2.5931v0.2413q-0.091 1.877-0.3015 3.1283-0.2111 1.2438-0.6634 2.0579z"/><path d="m1925 3752.6q-1.8845 0-3.2263-0.7463-1.3418-0.7538-2.0579-2.0956-0.7161-1.3493-0.7161-3.1283 0-1.7791 0.7161-3.1209 0.7161-1.3493 2.0579-2.0956 1.3418-0.7538 3.2263-0.7538 1.8846 0 3.2264 0.7538 1.3418 0.7463 2.0579 2.0956 0.7161 1.3418 0.7161 3.1209 0 1.779-0.7161 3.1283-0.7161 1.3418-2.0579 2.0956-1.3418 0.7463-3.2264 0.7463zm0.03-3.0756q0.5277 0 0.9121-0.3543 0.3845-0.3543 0.5955-1.0101 0.2111-0.6558 0.2111-1.5604 0-0.9121-0.2111-1.5604-0.211-0.6558-0.5955-1.0101-0.3844-0.3543-0.9121-0.3543-0.5578 0-0.9573 0.3543-0.3996 0.3543-0.6106 1.0101-0.2111 0.6483-0.2111 1.5604 0 0.9046 0.2111 1.5604 0.211 0.6558 0.6106 1.0101 0.3995 0.3543 0.9573 0.3543z"/><path d="m1938.3 3752.6q-1.8845 0-3.2263-0.7463-1.3418-0.7538-2.0579-2.0956-0.7162-1.3493-0.7162-3.1283 0-1.7791 0.7162-3.1209 0.7161-1.3493 2.0579-2.0956 1.3418-0.7538 3.2263-0.7538 1.7037 0 2.9475 0.6181 1.2513 0.6106 1.9373 1.7338 0.6859 1.1157 0.6935 2.6233h-3.8596q-0.083-0.9121-0.5276-1.387-0.4372-0.4825-1.1308-0.4825-0.5427 0-0.9498 0.3166-0.407 0.3091-0.6332 0.9423-0.2261 0.6257-0.2261 1.5755t0.2261 1.583q0.2262 0.6257 0.6332 0.9423 0.4071 0.3091 0.9498 0.3091 0.4599 0 0.8142-0.2111 0.3543-0.2186 0.5729-0.6332 0.2261-0.4222 0.2713-1.0252h3.8596q-0.023 1.5302-0.7011 2.6685-0.6784 1.1307-1.9222 1.7489-1.2363 0.6181-2.955 0.6181z"/><path d="m1951.7 3756.3v-19.358h4.161v19.358zm0-3.7088q-1.4323 0-2.6233-0.4372-1.1911-0.4372-2.0655-1.2363-0.8669-0.799-1.3493-1.8921-0.4749-1.093-0.4749-2.4046 0-1.3117 0.4749-2.4047 0.4824-1.0931 1.3493-1.8921 0.8744-0.7991 2.0655-1.2363 1.191-0.4372 2.6233-0.4372h0.6332v11.94zm0-3.1057h0.3919v-5.7291h-0.3919q-0.4825 0-0.8895 0.2111-0.3996 0.2111-0.6936 0.5955-0.2939 0.3769-0.4598 0.9046-0.1583 0.5201-0.1583 1.1534 0 0.8367 0.2865 1.485 0.2864 0.6483 0.7839 1.0176 0.5051 0.3619 1.1308 0.3619zm4.161 3.1057h-0.6332v-11.94h0.6332q1.4323 0 2.6233 0.4372 1.1911 0.4372 2.0579 1.2363 0.8745 0.799 1.3494 1.8921 0.4824 1.093 0.4824 2.4047 0 1.3116-0.4824 2.4046-0.4749 1.0931-1.3494 1.8921-0.8668 0.7991-2.0579 1.2363-1.191 0.4372-2.6233 0.4372zm0-3.1057q0.4825 0 0.882-0.2111 0.4071-0.2111 0.7011-0.588 0.2939-0.3844 0.4522-0.9046 0.1659-0.5276 0.1659-1.1608 0-0.8443-0.2865-1.4851-0.2789-0.6483-0.7764-1.0101-0.49-0.3694-1.1383-0.3694h-0.392v5.7291z"/><path d="m1969.6 3752.6q-1.8544 0-3.1962-0.7086-1.3343-0.7161-2.0579-2.0504-0.7162-1.3418-0.7162-3.2112 0-1.7941 0.7237-3.1359t2.0428-2.0881q1.3192-0.7463 3.1133-0.7463 1.3116 0 2.3745 0.4071 1.0629 0.407 1.8167 1.1835 0.7538 0.7689 1.1609 1.8694 0.4071 1.1006 0.4071 2.4801v0.9649h-10.342v-2.2916h6.513q-0.01-0.4975-0.2563-0.8744-0.2412-0.3845-0.6558-0.5956-0.4071-0.2186-0.9272-0.2186-0.5051 0-0.9272 0.2186-0.4222 0.2111-0.6785 0.588-0.2487 0.3769-0.2638 0.882v2.4725q0 0.5578 0.2337 0.995 0.2337 0.4373 0.6709 0.686 0.4372 0.2488 1.0553 0.2488 0.4297 0 0.784-0.1206 0.3618-0.1206 0.6181-0.3468 0.2563-0.2337 0.3769-0.5578h3.7993q-0.196 1.2061-0.9272 2.0956-0.7312 0.882-1.9373 1.3719-1.1986 0.4825-2.8042 0.4825z"/><path d="m1976.9 3756.7v-15.921h4.1309v2.0202h0.091q0.2261-0.588 0.6633-1.0779 0.4373-0.4976 1.0855-0.7916 0.6483-0.3015 1.5077-0.3015 1.1458 0 2.1785 0.6106 1.0403 0.6106 1.6886 1.9222 0.6558 1.3117 0.6558 3.4073 0 2.0052-0.6257 3.3243-0.6181 1.3192-1.6584 1.9675-1.0327 0.6483-2.269 0.6483-0.8141 0-1.4548-0.2639-0.6332-0.2713-1.0855-0.7312-0.4448-0.4673-0.686-1.0553h-0.06v6.2416zm4.0706-10.131q0 0.8443 0.2186 1.4624 0.2262 0.6106 0.6332 0.9498 0.4146 0.3317 0.9875 0.3317t0.9725-0.3241q0.407-0.3317 0.6181-0.9423 0.2186-0.6181 0.2186-1.4775t-0.2186-1.4699q-0.2111-0.6182-0.6181-0.9423-0.3996-0.3317-0.9725-0.3317t-0.9875 0.3317q-0.407 0.3241-0.6332 0.9423-0.2186 0.6105-0.2186 1.4699z"/><path d="m1993.9 3752.5q-1.1081 0-1.9599-0.3618-0.8443-0.3694-1.3268-1.1156-0.4824-0.7463-0.4824-1.8997 0-0.9498 0.3241-1.6207 0.3242-0.6784 0.9046-1.1081 0.5805-0.4297 1.3494-0.6558 0.7764-0.2262 1.6734-0.294 0.9725-0.075 1.5604-0.1809 0.5955-0.1131 0.8594-0.3091 0.2638-0.2035 0.2638-0.5352v-0.03q0-0.4523-0.3467-0.6936-0.3468-0.2412-0.8895-0.2412-0.5956 0-0.9725 0.2639-0.3693 0.2563-0.4447 0.7915h-3.8294q0.075-1.0554 0.6709-1.9449 0.603-0.897 1.7564-1.4322 1.1533-0.5428 2.8796-0.5428 1.2438 0 2.2313 0.294 0.9875 0.2865 1.681 0.8066 0.6935 0.5126 1.0553 1.2061 0.3694 0.686 0.3694 1.4926v7.9301h-3.8897v-1.6282h-0.091q-0.3467 0.6483-0.8442 1.0478-0.49 0.3995-1.1232 0.5804-0.6257 0.1809-1.3795 0.1809zm1.3569-2.6233q0.4749 0 0.8895-0.1959 0.4221-0.196 0.6859-0.5654 0.2639-0.3694 0.2639-0.8971v-0.9648q-0.1659 0.068-0.3543 0.1281-0.1809 0.06-0.392 0.1131-0.2035 0.053-0.4372 0.098-0.2262 0.045-0.4749 0.083-0.4825 0.075-0.7915 0.2488-0.3016 0.1658-0.4523 0.4146-0.1433 0.2412-0.1433 0.5427 0 0.4825 0.3393 0.7388 0.3392 0.2562 0.8669 0.2562z"/></g><g transform="matrix(1.5616 0 0 1.5616 -817.26 -2169.7)" stop-color="#000000" stroke-width="6.3388" style="shape-inside:url(#rect7146);white-space:pre" aria-label="разработано"><path d="m1813 3757v-16.137h2.2312v1.9026h0.191q0.1986-0.3668 0.573-0.8482 0.3744-0.4813 1.0392-0.8405 0.6647-0.3667 1.7574-0.3667 1.4212 0 2.5367 0.7182 1.1156 0.7183 1.7498 2.0707 0.6418 1.3524 0.6418 3.255 0 1.9025-0.6342 3.2626-0.6342 1.3524-1.7421 2.0859-1.1079 0.7259-2.5291 0.7259-1.0697 0-1.7498-0.3591-0.6723-0.3591-1.0544-0.8405-0.382-0.4814-0.5883-0.8558h-0.1376v6.2273zm2.2388-10.269q0 1.2379 0.3591 2.17 0.3591 0.9322 1.0392 1.4594 0.68 0.5196 1.6657 0.5196 1.0238 0 1.7115-0.5425 0.6877-0.5501 1.0391-1.49 0.3592-0.9398 0.3592-2.1165 0-1.1614-0.3515-2.0859-0.3439-0.9245-1.0392-1.4594-0.6876-0.5348-1.7191-0.5348-0.9933 0-1.681 0.5119-0.6801 0.5119-1.0315 1.4288-0.3515 0.9169-0.3515 2.1394z"/><path d="m1829.7 3752.9q-1.1156 0-2.0172-0.4126-0.9016-0.4203-1.4288-1.2149-0.5196-0.7947-0.5196-1.9484 0-0.9933 0.3821-1.6352 0.382-0.6418 1.0315-1.0162 0.6494-0.3744 1.4517-0.5654t1.6351-0.2904q1.0545-0.1222 1.7116-0.1986 0.6571-0.084 0.9551-0.2674t0.298-0.596v-0.053q0-1.001-0.5654-1.5511-0.5578-0.5501-1.6657-0.5501-1.1538 0-1.8185 0.5119-0.6572 0.5043-0.9093 1.1232l-2.1471-0.489q0.3821-1.0697 1.1156-1.7268 0.7411-0.6648 1.7039-0.9628 0.9627-0.3056 2.0248-0.3056 0.703 0 1.49 0.1681 0.7946 0.1604 1.4823 0.596 0.6953 0.4355 1.1385 1.2454 0.4431 0.8023 0.4431 2.086v7.7936h-2.2311v-1.6046h-0.092q-0.2216 0.4432-0.6647 0.8711-0.4432 0.4278-1.1385 0.7106-0.6953 0.2827-1.6657 0.2827zm0.4966-1.8338q0.9475 0 1.6199-0.3744 0.68-0.3744 1.0315-0.9781 0.3591-0.6112 0.3591-1.3065v-1.5129q-0.1222 0.1222-0.4737 0.2292-0.3438 0.099-0.787 0.1758-0.4432 0.069-0.8634 0.1298-0.4203 0.053-0.703 0.092-0.6647 0.084-1.2149 0.2827-0.5425 0.1987-0.871 0.5731-0.3209 0.3668-0.3209 0.978 0 0.8482 0.6265 1.2837 0.6266 0.4279 1.5969 0.4279z"/><path d="m1837.8 3749.5h2.3381q0.046 0.7182 0.6495 1.1079 0.6112 0.3897 1.5816 0.3897 0.9857 0 1.681-0.4202 0.6953-0.4279 0.6953-1.3219 0-0.5349-0.2674-0.9322-0.2598-0.4049-0.7412-0.6265-0.4737-0.2216-1.1232-0.2216h-1.9102v-1.7956h1.9102q0.9704 0 1.4518-0.4432 0.4814-0.4431 0.4814-1.1079 0-0.7182-0.5196-1.1537-0.5119-0.4432-1.4288-0.4432-0.9322 0-1.5511 0.4202-0.6189 0.4126-0.6495 1.0698h-2.3075q0.023-0.9857 0.596-1.7269 0.5807-0.7488 1.5587-1.1614 0.9857-0.4202 2.2387-0.4202 1.3066 0 2.2617 0.4202 0.9551 0.4203 1.4747 1.1614 0.5272 0.7412 0.5272 1.7039 0 0.9704-0.5807 1.5893-0.5731 0.6113-1.4976 0.8787v0.1223q0.68 0.046 1.2073 0.4126 0.5272 0.3667 0.8252 0.9704 0.298 0.6036 0.298 1.3677 0 1.0773-0.596 1.8643-0.5884 0.787-1.6352 1.2149-1.0391 0.4202-2.3762 0.4202-1.299 0-2.3305-0.4049-1.0239-0.4126-1.6275-1.1614-0.596-0.7488-0.6342-1.7727z"/><path d="m1849.4 3757v-16.137h2.2311v1.9026h0.191q0.1987-0.3668 0.5731-0.8482 0.3744-0.4813 1.0391-0.8405 0.6648-0.3667 1.7574-0.3667 1.4212 0 2.5368 0.7182 1.1155 0.7183 1.7497 2.0707 0.6418 1.3524 0.6418 3.255 0 1.9025-0.6342 3.2626-0.6341 1.3524-1.7421 2.0859-1.1079 0.7259-2.5291 0.7259-1.0697 0-1.7497-0.3591-0.6724-0.3591-1.0544-0.8405-0.3821-0.4814-0.5884-0.8558h-0.1375v6.2273zm2.2387-10.269q0 1.2379 0.3592 2.17 0.3591 0.9322 1.0391 1.4594 0.68 0.5196 1.6657 0.5196 1.0239 0 1.7115-0.5425 0.6877-0.5501 1.0392-1.49 0.3591-0.9398 0.3591-2.1165 0-1.1614-0.3515-2.0859-0.3438-0.9245-1.0391-1.4594-0.6877-0.5348-1.7192-0.5348-0.9933 0-1.681 0.5119-0.68 0.5119-1.0315 1.4288t-0.3515 2.1394z"/><path d="m1866.1 3752.9q-1.1155 0-2.0171-0.4126-0.9016-0.4203-1.4289-1.2149-0.5195-0.7947-0.5195-1.9484 0-0.9933 0.382-1.6352 0.382-0.6418 1.0315-1.0162t1.4518-0.5654q0.8022-0.191 1.6351-0.2904 1.0544-0.1222 1.7115-0.1986 0.6571-0.084 0.9551-0.2674t0.298-0.596v-0.053q0-1.001-0.5654-1.5511-0.5578-0.5501-1.6657-0.5501-1.1538 0-1.8185 0.5119-0.6571 0.5043-0.9093 1.1232l-2.147-0.489q0.382-1.0697 1.1155-1.7268 0.7412-0.6648 1.7039-0.9628 0.9628-0.3056 2.0248-0.3056 0.703 0 1.49 0.1681 0.7946 0.1604 1.4823 0.596 0.6953 0.4355 1.1385 1.2454 0.4432 0.8023 0.4432 2.086v7.7936h-2.2311v-1.6046h-0.092q-0.2216 0.4432-0.6648 0.8711-0.4432 0.4278-1.1385 0.7106-0.6953 0.2827-1.6657 0.2827zm0.4967-1.8338q0.9474 0 1.6198-0.3744 0.6801-0.3744 1.0315-0.9781 0.3592-0.6112 0.3592-1.3065v-1.5129q-0.1223 0.1222-0.4738 0.2292-0.3438 0.099-0.787 0.1758-0.4431 0.069-0.8634 0.1298-0.4202 0.053-0.7029 0.092-0.6648 0.084-1.2149 0.2827-0.5425 0.1987-0.8711 0.5731-0.3209 0.3668-0.3209 0.978 0 0.8482 0.6266 1.2837 0.6265 0.4279 1.5969 0.4279z"/><path d="m1884 3736.5 0.9475 1.4441q-0.5272 0.4813-1.1996 0.6876-0.6648 0.1987-1.5358 0.2522-0.8711 0.046-1.9943 0.084-1.2683 0.038-2.0859 0.5502-0.8176 0.5043-1.2607 1.4976-0.4356 0.9856-0.5655 2.4756h0.1452q0.5731-1.0926 1.5893-1.6351 1.0239-0.5425 2.2999-0.5425 1.4212 0 2.5291 0.6494 1.1079 0.6495 1.7421 1.9026 0.6418 1.2454 0.6418 3.0487 0 1.8261-0.6724 3.1556-0.6647 1.3295-1.8796 2.0554-1.2072 0.7182-2.85 0.7182t-2.8653-0.7411q-1.2149-0.7488-1.8873-2.2158-0.6647-1.4671-0.6647-3.6218v-1.1614q0-4.0267 1.4364-6.0591 1.4365-2.0325 4.2942-2.086 0.9245-0.023 1.6504-0.01 0.7258 0.01 1.2683-0.069 0.5502-0.084 0.9169-0.382zm-4.1413 14.426q0.9551 0 1.6428-0.4814 0.6953-0.489 1.0697-1.383 0.3744-0.8939 0.3744-2.1088 0-1.192-0.3744-2.0248-0.3744-0.8329-1.0697-1.2684-0.6953-0.4432-1.6657-0.4432-0.7182 0-1.2837 0.2522-0.5654 0.2445-0.9703 0.7259-0.3974 0.4813-0.6189 1.1766-0.214 0.6877-0.2293 1.5817 0 1.8185 0.8329 2.8958 0.8405 1.0774 2.2922 1.0774z"/><path d="m1892.7 3752.8q-1.6505 0-2.8806-0.7564-1.2302-0.7564-1.9102-2.1165-0.6801-1.3601-0.6801-3.1786 0-1.8261 0.6801-3.1938 0.68-1.3677 1.9102-2.1242 1.2301-0.7564 2.8806-0.7564 1.6504 0 2.8805 0.7564 1.2302 0.7565 1.9102 2.1242 0.6801 1.3677 0.6801 3.1938 0 1.8185-0.6801 3.1786-0.68 1.3601-1.9102 2.1165-1.2301 0.7564-2.8805 0.7564zm0.01-1.9178q1.0697 0 1.7727-0.5654 0.7029-0.5654 1.0391-1.5053 0.3438-0.9398 0.3438-2.0706 0-1.1232-0.3438-2.063-0.3362-0.9475-1.0391-1.5206-0.703-0.573-1.7727-0.573-1.0774 0-1.788 0.573-0.7029 0.5731-1.0467 1.5206-0.3362 0.9398-0.3362 2.063 0 1.1308 0.3362 2.0706 0.3438 0.9399 1.0467 1.5053 0.7106 0.5654 1.788 0.5654z"/><path d="m1899.3 3742.8v-1.9713h9.9025v1.9713h-3.8281v9.765h-2.2311v-9.765z"/><path d="m1914.5 3752.9q-1.1156 0-2.0172-0.4126-0.9016-0.4203-1.4288-1.2149-0.5196-0.7947-0.5196-1.9484 0-0.9933 0.382-1.6352 0.3821-0.6418 1.0315-1.0162 0.6495-0.3744 1.4518-0.5654t1.6351-0.2904q1.0545-0.1222 1.7116-0.1986 0.6571-0.084 0.9551-0.2674t0.298-0.596v-0.053q0-1.001-0.5655-1.5511-0.5577-0.5501-1.6657-0.5501-1.1537 0-1.8185 0.5119-0.6571 0.5043-0.9092 1.1232l-2.1471-0.489q0.382-1.0697 1.1156-1.7268 0.7411-0.6648 1.7039-0.9628 0.9627-0.3056 2.0248-0.3056 0.7029 0 1.4899 0.1681 0.7947 0.1604 1.4823 0.596 0.6954 0.4355 1.1385 1.2454 0.4432 0.8023 0.4432 2.086v7.7936h-2.2311v-1.6046h-0.092q-0.2216 0.4432-0.6648 0.8711-0.4431 0.4278-1.1384 0.7106-0.6954 0.2827-1.6657 0.2827zm0.4966-1.8338q0.9475 0 1.6199-0.3744 0.68-0.3744 1.0315-0.9781 0.3591-0.6112 0.3591-1.3065v-1.5129q-0.1223 0.1222-0.4737 0.2292-0.3439 0.099-0.787 0.1758-0.4432 0.069-0.8635 0.1298-0.4202 0.053-0.7029 0.092-0.6648 0.084-1.2149 0.2827-0.5425 0.1987-0.871 0.5731-0.321 0.3668-0.321 0.978 0 0.8482 0.6266 1.2837 0.6265 0.4279 1.5969 0.4279z"/><path d="m1931.3 3745.8v1.9789h-6.3572v-1.9789zm-5.7153-4.8825v11.736h-2.2388v-11.736zm7.3122 0v11.736h-2.2311v-11.736z"/><path d="m1940.9 3752.8q-1.6504 0-2.8806-0.7564-1.2301-0.7564-1.9102-2.1165-0.68-1.3601-0.68-3.1786 0-1.8261 0.68-3.1938 0.6801-1.3677 1.9102-2.1242 1.2302-0.7564 2.8806-0.7564t2.8806 0.7564q1.2302 0.7565 1.9102 2.1242t0.68 3.1938q0 1.8185-0.68 3.1786t-1.9102 2.1165-2.8806 0.7564zm0.01-1.9178q1.0697 0 1.7726-0.5654 0.703-0.5654 1.0392-1.5053 0.3438-0.9398 0.3438-2.0706 0-1.1232-0.3438-2.063-0.3362-0.9475-1.0392-1.5206-0.7029-0.573-1.7726-0.573-1.0774 0-1.788 0.573-0.703 0.5731-1.0468 1.5206-0.3362 0.9398-0.3362 2.063 0 1.1308 0.3362 2.0706 0.3438 0.9399 1.0468 1.5053 0.7106 0.5654 1.788 0.5654z"/></g></g><g transform="matrix(.29796 0 0 .29796 1899.8 3401.1)" fill="#fff"><rect x="581.4" y="2030.5" width="302.15" height="302.15" ry="151.08" stop-color="#000000" stroke-linecap="round" stroke-linejoin="round" stroke-width="33.221"/><g transform="matrix(1.2579 0 0 1.2579 581.4 2030.5)" stroke-width="2.668"><circle cx="120.1" cy="120.1" r="120.1" clip-rule="evenodd" fill="#fff" fill-rule="evenodd" stroke-width="2.121"/></g></g><g transform="matrix(.29796 0 0 .29796 1774.8 3401.1)"><rect x="581.4" y="2030.5" width="302.15" height="302.15" ry="151.08" fill="#2aabee" stop-color="#000000" stroke-linecap="round" stroke-linejoin="round" stroke-width="33.221"/><g transform="matrix(1.2579 0 0 1.2579 581.4 2030.5)" clip-rule="evenodd" fill-rule="evenodd" stroke-width="2.121"><circle cx="120.1" cy="120.1" r="120.1" fill="url(#Oval_1_)"/><path d="m54.3 118.8c35-15.2 58.3-25.3 70-30.2 33.3-13.9 40.3-16.3 44.8-16.4 1 0 3.2 0.2 4.7 1.4 1.2 1 1.5 2.3 1.7 3.3s0.4 3.1 0.2 4.7c-1.8 19-9.6 65.1-13.6 86.3-1.7 9-5 12-8.2 12.3-7 0.6-12.3-4.6-19-9-10.6-6.9-16.5-11.2-26.8-18-11.9-7.8-4.2-12.1 2.6-19.1 1.8-1.8 32.5-29.8 33.1-32.3 0.1-0.3 0.1-1.5-0.6-2.1s-1.7-0.4-2.5-0.2c-1.1 0.2-17.9 11.4-50.6 33.5-4.8 3.3-9.1 4.9-13 4.8-4.3-0.1-12.5-2.4-18.7-4.4-7.5-2.4-13.5-3.7-13-7.9 0.3-2.2 3.3-4.4 8.9-6.7z" fill="#fff"/></g></g><g transform="matrix(.29796 0 0 .29796 2024.8 3401.1)" fill="#fff"><rect x="581.4" y="2030.5" width="302.15" height="302.15" ry="151.08" stop-color="#000000" stroke-linecap="round" stroke-linejoin="round" stroke-width="33.221"/><g transform="matrix(1.2579 0 0 1.2579 581.4 2030.5)" stroke-width="2.668"><circle cx="120.1" cy="120.1" r="120.1" clip-rule="evenodd" fill="#fff" fill-rule="evenodd" stroke-width="2.121"/></g></g><path class="fil2" d="m2154.3 4051.1c0 20.032-16.241 36.273-36.276 36.273-20.032 0-36.272-16.241-36.272-36.273 0-20.035 16.24-36.276 36.272-36.276 20.035 0 36.276 16.241 36.276 36.276zm-32.089 18.551c1.96-6.0484 7.6441-10.422 14.347-10.422 0.2288 0 0.4565 0 0.6842 0.018 1.9286-3.2583 3.0381-7.0624 3.0381-11.122 0-12.073-9.7902-21.861-21.86-21.861-12.071 0-21.862 9.7885-21.862 21.861 0 4.0598 1.108 7.8639 3.0384 11.122 0.2274-0.018 0.4548-0.018 0.6839-0.018 6.7028 0 12.387 4.3739 14.347 10.422 0.4788 1.4677 1.7742 6.5674 1.7742 8.1912v5.4593c-17.052-0.8463-30.622-14.937-30.622-32.201 0-17.806 14.436-32.241 32.244-32.241 17.806 0 32.243 14.436 32.243 32.241 0 16.995-13.151 30.921-29.83 32.15v-5.4221c0-1.6418 1.2968-6.7159 1.7742-8.1778zm-1.7742-36.04c1.7445-0.69 3.5349-1.27 5.3523-1.7295-1.6641-0.7526-3.4635-1.2626-5.3523-1.4769zm10.088 1.4247c-3.4754 0.5278-6.8678 1.5198-10.088 2.9489v4.933c4.1745-2.1474 8.7149-3.4249 13.382-3.785-0.8924-1.527-2.0019-2.9043-3.2942-4.0969zm4.9999 8.041c-5.321 0.1722-10.501 1.6864-15.087 4.457v6.5522c2.1966-1.7533 4.6743-3.1437 7.3406-4.1044 2.7261-0.986 5.586-1.4977 8.4667-1.5318v-0.3302c0-1.7519-0.2528-3.4458-0.7213-5.0428zm0.1796 9.4195c-2.2307 0.088-4.4436 0.5135-6.5615 1.279-3.3356 1.2017-6.3173 3.2018-8.7058 5.8162v4.4422c3.1335-4.9135 8.3995-8.1957 14.314-8.7534 0.3955-0.9027 0.7138-1.8336 0.9532-2.784zm-19.302 11.539v-33.63c-8.8979 1.0039-15.809 8.5482-15.809 17.715 0 2.4806 0.5071 4.9092 1.4932 7.1606 5.916 0.5577 11.182 3.8399 14.316 8.7549z" clip-rule="evenodd" fill="#21a73f" fill-rule="evenodd" image-rendering="optimizeQuality" shape-rendering="geometricPrecision" stroke-width=".00097555"/><g transform="matrix(-.12767 0 0 -.12656 2341.2 4167.3)" fill="#21a73f" stroke-linecap="round" stroke-linejoin="round" stroke-width="78.671"><path d="m708.08 859.8-85.407-49.708c44.458-77.778 44.458-77.778 44.458-77.778 12.285-21.637 57.913-22.222 73.707-3.5088l21.644 36.257z"/><path d="m639.05 978.52h-45.628c-17.549-1.9006-46.798-38.012-29.249-70.76 19.889-33.333 19.889-33.333 19.889-33.333l-31.004-18.129h98.276c49.723 85.38 49.723 85.38 49.723 85.38l-31.004-16.959z"/><path d="m756.63 990.8v100h-109.39c-6.4348 0.5848-11.115-5.8479-14.624-11.111-51.478-91.228-50.893-90.643-53.233-93.567 2.7786 2.3392 5.8498 4.6784 14.624 4.6784z"/><path d="m946.16 990.8c11.115-1.1696 12.87-4.0936 15.794-5.848-54.988 97.076-54.988 97.076-54.988 97.076-2.3399 4.6783-7.0197 8.7719-14.039 8.7719h-60.838v35.672l-49.723-84.795c49.723-85.38 49.723-85.38 49.723-85.38v34.503z"/><path d="m847.89 884.95 85.992-49.123c45.043 76.608 45.043 76.608 45.043 76.608 16.379 31.579-11.7 61.988-30.419 65.497h-46.213z"/><path d="m753.12 721.21c-3.5099-4.6784-10.53-10.526-16.964-11.696h115.24c6.4348 0 12.285 2.3392 15.209 7.6023 29.834 52.632 29.834 52.632 29.834 52.632l29.834-16.959c-48.553 84.211-48.553 84.211-48.553 84.211h-97.106l29.249-17.544z"/></g></g></svg>
