<svg xmlns="http://www.w3.org/2000/svg" xmlns:svg="http://www.w3.org/2000/svg" id="svg5" width="414" height="540" version="1.1" viewBox="0 0 109.537 142.875" xml:space="preserve"><defs id="defs2"><rect id="rect410" width="146.969" height="103.156" x="-419.314" y="598.237"/><rect id="rect1074" width="146.969" height="103.156" x="-419.314" y="598.237"/><rect id="rect1080" width="146.969" height="103.156" x="-419.314" y="598.237"/></defs><g id="layer1" transform="translate(-3.3455048,-50.308666)"><rect style="opacity:.5;fill:none;stroke-width:2.619;stroke-linecap:round;stroke-linejoin:round;stop-color:#000" id="rect300" width="109.537" height="142.875" x="3.346" y="50.309"/><g id="text1072" aria-label="Органика" transform="matrix(0.23620505,0,0,0.23620502,148.08401,17.912684)" style="font-weight:300;font-size:16px;line-height:1.25;font-family:Inter;-inkscape-font-specification:'Inter Light';white-space:pre;shape-inside:url(#rect1074);display:inline;opacity:1;fill:#fff;stroke-width:11.0878;stroke-linecap:round;stroke-linejoin:round;stop-color:#000"><path d="m -407.60991,607.22761 q 0,1.90341 -0.72159,3.23864 -0.71591,1.33522 -1.95454,2.03977 -1.23296,0.69886 -2.77273,0.69886 -1.55114,0 -2.78409,-0.70454 -1.23296,-0.70455 -1.94887,-2.03977 -0.7159,-1.33523 -0.7159,-3.23296 0,-1.90341 0.7159,-3.23864 0.71591,-1.33522 1.94887,-2.03409 1.23295,-0.70454 2.78409,-0.70454 1.53977,0 2.77273,0.70454 1.23863,0.69887 1.95454,2.03409 0.72159,1.33523 0.72159,3.23864 z m -2.49432,0 q 0,-1.23295 -0.36931,-2.07954 -0.36364,-0.8466 -1.02841,-1.2841 -0.66478,-0.4375 -1.55682,-0.4375 -0.89205,0 -1.55682,0.4375 -0.66477,0.4375 -1.03409,1.2841 -0.36364,0.84659 -0.36364,2.07954 0,1.23296 0.36364,2.07955 0.36932,0.84659 1.03409,1.28409 0.66477,0.4375 1.55682,0.4375 0.89204,0 1.55682,-0.4375 0.66477,-0.4375 1.02841,-1.28409 0.36931,-0.84659 0.36931,-2.07955 z" style="font-weight:700;-inkscape-font-specification:'Inter Bold'" id="path1139"/><path d="m -405.83719,616.31852 v -12 h 2.38636 v 1.46591 h 0.10796 q 0.15909,-0.35227 0.46022,-0.71591 0.30682,-0.36932 0.79546,-0.61364 0.49432,-0.25 1.22727,-0.25 0.95455,0 1.76136,0.5 0.80682,0.49432 1.28978,1.49432 0.48295,0.99432 0.48295,2.49432 0,1.46023 -0.47159,2.46591 -0.46591,1 -1.27273,1.51704 -0.80113,0.51137 -1.79545,0.51137 -0.70455,0 -1.19886,-0.23296 -0.48864,-0.23295 -0.80114,-0.58522 -0.3125,-0.35796 -0.47727,-0.72159 h -0.0739 v 4.67045 z m 2.36932,-7.63636 q 0,0.77841 0.21591,1.35795 0.2159,0.57955 0.625,0.90341 0.40909,0.31818 0.99431,0.31818 0.59091,0 1,-0.32386 0.40909,-0.32955 0.61932,-0.90909 0.21591,-0.58523 0.21591,-1.34659 0,-0.75569 -0.21023,-1.32955 -0.21022,-0.57386 -0.61931,-0.89773 -0.4091,-0.32386 -1.00569,-0.32386 -0.59091,0 -1,0.3125 -0.40341,0.3125 -0.61931,0.88636 -0.21591,0.57387 -0.21591,1.35228 z" style="font-weight:700;-inkscape-font-specification:'Inter Bold'" id="path1141"/><path d="m -389.7406,604.31852 v 1.90341 h -3.625 v 6.82386 h -2.35227 v -8.72727 z" style="font-weight:700;-inkscape-font-specification:'Inter Bold'" id="path1143"/><path d="m -386.09859,613.21057 q -0.83522,0 -1.48863,-0.28978 -0.65341,-0.29545 -1.03409,-0.86932 -0.375,-0.57954 -0.375,-1.44318 0,-0.72727 0.26704,-1.22159 0.26705,-0.49432 0.72728,-0.79545 0.46022,-0.30114 1.04545,-0.45455 0.59091,-0.15341 1.23864,-0.21591 0.76136,-0.0795 1.22727,-0.14772 0.46591,-0.0739 0.67614,-0.21591 0.21022,-0.14205 0.21022,-0.42046 v -0.0341 q 0,-0.53977 -0.34091,-0.83523 -0.33522,-0.29545 -0.95454,-0.29545 -0.65341,0 -1.03977,0.28977 -0.38637,0.28409 -0.51137,0.71591 l -2.23863,-0.18182 q 0.17045,-0.79545 0.67045,-1.375 0.5,-0.58522 1.28977,-0.89772 0.79546,-0.31819 1.84091,-0.31819 0.72727,0 1.39205,0.17046 0.67045,0.17045 1.1875,0.52841 0.52272,0.35795 0.82386,0.92045 0.30114,0.55682 0.30114,1.33523 v 5.88636 h -2.29546 v -1.21022 h -0.0682 q -0.21023,0.40909 -0.5625,0.72159 -0.35227,0.30681 -0.84659,0.48295 -0.49432,0.17046 -1.14205,0.17046 z m 0.69319,-1.67046 q 0.53409,0 0.94318,-0.21023 0.40909,-0.21591 0.64204,-0.57954 0.23296,-0.36364 0.23296,-0.82387 v -0.92613 q -0.11364,0.0739 -0.3125,0.13636 -0.19318,0.0568 -0.4375,0.10796 -0.24432,0.0455 -0.48864,0.0852 -0.24432,0.0341 -0.44318,0.0625 -0.42614,0.0625 -0.74432,0.19887 -0.31818,0.13636 -0.49432,0.36932 -0.17613,0.22727 -0.17613,0.56818 0,0.49432 0.35795,0.75568 0.36364,0.25568 0.92046,0.25568 z" style="font-weight:700;-inkscape-font-specification:'Inter Bold'" id="path1145"/><path d="m -373.22927,607.71625 v 1.90341 h -4.55682 v -1.90341 z m -3.76136,-3.39773 v 8.72727 h -2.3125 v -8.72727 z m 5.27841,0 v 8.72727 h -2.29546 v -8.72727 z" style="font-weight:700;-inkscape-font-specification:'Inter Bold'" id="path1147"/><path d="m -367.52472,609.85261 3.14204,-5.53409 h 2.38637 v 8.72727 h -2.30682 v -5.55113 l -3.13068,5.55113 h -2.40341 v -8.72727 h 2.3125 z" style="font-weight:700;-inkscape-font-specification:'Inter Bold'" id="path1149"/><path d="m -360.05881,613.04579 v -8.72727 h 2.42045 v 3.38636 h 0.68182 l 2.375,-3.38636 h 2.84091 l -3.08523,4.32955 3.11932,4.39772 h -2.875 l -2.15341,-3.09659 h -0.90341 v 3.09659 z" style="font-weight:700;-inkscape-font-specification:'Inter Bold'" id="path1151"/><path d="m -348.20085,613.21057 q -0.83523,0 -1.48864,-0.28978 -0.65341,-0.29545 -1.03409,-0.86932 -0.375,-0.57954 -0.375,-1.44318 0,-0.72727 0.26705,-1.22159 0.26704,-0.49432 0.72727,-0.79545 0.46023,-0.30114 1.04546,-0.45455 0.5909,-0.15341 1.23863,-0.21591 0.76137,-0.0795 1.22727,-0.14772 0.46591,-0.0739 0.67614,-0.21591 0.21023,-0.14205 0.21023,-0.42046 v -0.0341 q 0,-0.53977 -0.34091,-0.83523 -0.33523,-0.29545 -0.95455,-0.29545 -0.65341,0 -1.03977,0.28977 -0.38636,0.28409 -0.51136,0.71591 l -2.23864,-0.18182 q 0.17046,-0.79545 0.67046,-1.375 0.5,-0.58522 1.28977,-0.89772 0.79545,-0.31819 1.84091,-0.31819 0.72727,0 1.39204,0.17046 0.67046,0.17045 1.1875,0.52841 0.52273,0.35795 0.82387,0.92045 0.30113,0.55682 0.30113,1.33523 v 5.88636 h -2.29545 v -1.21022 h -0.0682 q -0.21023,0.40909 -0.5625,0.72159 -0.35228,0.30681 -0.84659,0.48295 -0.49432,0.17046 -1.14205,0.17046 z m 0.69318,-1.67046 q 0.53409,0 0.94318,-0.21023 0.40909,-0.21591 0.64205,-0.57954 0.23295,-0.36364 0.23295,-0.82387 v -0.92613 q -0.11363,0.0739 -0.3125,0.13636 -0.19318,0.0568 -0.4375,0.10796 -0.24431,0.0455 -0.48863,0.0852 -0.24432,0.0341 -0.44318,0.0625 -0.42614,0.0625 -0.74432,0.19887 -0.31818,0.13636 -0.49432,0.36932 -0.17614,0.22727 -0.17614,0.56818 0,0.49432 0.35796,0.75568 0.36363,0.25568 0.92045,0.25568 z" style="font-weight:700;-inkscape-font-specification:'Inter Bold'" id="path1153"/></g><g id="text408" aria-label="Пластик" transform="matrix(0.23620505,0,0,0.23620502,112.76119,17.912684)" style="font-weight:300;font-size:16px;line-height:1.25;font-family:Inter;-inkscape-font-specification:'Inter Light';white-space:pre;shape-inside:url(#rect410);display:inline;opacity:1;fill:#fff;stroke-width:11.0878;stroke-linecap:round;stroke-linejoin:round;stop-color:#000"><path d="m -408.41104,601.40943 v 11.63636 h -2.43182 v -9.63636 h -4.70455 v 9.63636 h -2.43182 v -11.63636 z" style="font-weight:700;-inkscape-font-specification:'Inter Bold'" id="path1124"/><path d="m -406.62126,613.04579 -0.0114,-1.92045 h 0.28977 q 0.30682,0 0.52841,-0.14773 0.22727,-0.15341 0.375,-0.49432 0.14773,-0.34091 0.23295,-0.90341 0.0852,-0.56818 0.11364,-1.39772 l 0.14204,-3.86364 h 6.63637 v 8.72727 h -2.30682 v -6.82386 h -2.15341 l -0.13636,2.66477 q -0.0511,1.09659 -0.26705,1.88637 -0.21023,0.78977 -0.58523,1.29545 -0.375,0.5 -0.9034,0.73864 -0.52841,0.23863 -1.22728,0.23863 z" style="font-weight:700;-inkscape-font-specification:'Inter Bold'" id="path1126"/><path d="m -393.94511,613.21057 q -0.83523,0 -1.48864,-0.28978 -0.65341,-0.29545 -1.03409,-0.86932 -0.375,-0.57954 -0.375,-1.44318 0,-0.72727 0.26705,-1.22159 0.26704,-0.49432 0.72727,-0.79545 0.46023,-0.30114 1.04545,-0.45455 0.59091,-0.15341 1.23864,-0.21591 0.76136,-0.0795 1.22727,-0.14772 0.46591,-0.0739 0.67614,-0.21591 0.21023,-0.14205 0.21023,-0.42046 v -0.0341 q 0,-0.53977 -0.34091,-0.83523 -0.33523,-0.29545 -0.95455,-0.29545 -0.65341,0 -1.03977,0.28977 -0.38637,0.28409 -0.51137,0.71591 l -2.23863,-0.18182 q 0.17045,-0.79545 0.67045,-1.375 0.5,-0.58522 1.28978,-0.89772 0.79545,-0.31819 1.8409,-0.31819 0.72728,0 1.39205,0.17046 0.67045,0.17045 1.1875,0.52841 0.52273,0.35795 0.82386,0.92045 0.30114,0.55682 0.30114,1.33523 v 5.88636 h -2.29545 v -1.21022 h -0.0682 q -0.21022,0.40909 -0.5625,0.72159 -0.35227,0.30681 -0.84659,0.48295 -0.49432,0.17046 -1.14204,0.17046 z m 0.69318,-1.67046 q 0.53409,0 0.94318,-0.21023 0.40909,-0.21591 0.64205,-0.57954 0.23295,-0.36364 0.23295,-0.82387 v -0.92613 q -0.11364,0.0739 -0.3125,0.13636 -0.19318,0.0568 -0.4375,0.10796 -0.24432,0.0455 -0.48864,0.0852 -0.24431,0.0341 -0.44318,0.0625 -0.42613,0.0625 -0.74432,0.19887 -0.31818,0.13636 -0.49431,0.36932 -0.17614,0.22727 -0.17614,0.56818 0,0.49432 0.35795,0.75568 0.36364,0.25568 0.92046,0.25568 z" style="font-weight:700;-inkscape-font-specification:'Inter Bold'" id="path1128"/><path d="m -383.20648,613.21625 q -1.34091,0 -2.30682,-0.56818 -0.96022,-0.57387 -1.47727,-1.59091 -0.51136,-1.01705 -0.51136,-2.34091 0,-1.34091 0.51704,-2.35228 0.52273,-1.01704 1.48296,-1.58522 0.96022,-0.57387 2.28409,-0.57387 1.14204,0 2,0.41478 0.85795,0.41477 1.35795,1.16477 0.5,0.75 0.55114,1.76136 h -2.28409 q -0.0966,-0.65341 -0.51137,-1.05113 -0.40909,-0.40341 -1.07386,-0.40341 -0.5625,0 -0.98295,0.30682 -0.41478,0.30113 -0.64773,0.88068 -0.23296,0.57954 -0.23296,1.40341 0,0.83522 0.22728,1.42045 0.23295,0.58523 0.65341,0.89205 0.42045,0.30681 0.98295,0.30681 0.41477,0 0.74432,-0.17045 0.33523,-0.17045 0.55113,-0.49432 0.2216,-0.32954 0.28978,-0.78977 h 2.28409 q -0.0568,1 -0.54546,1.76136 -0.48295,0.75568 -1.33522,1.18182 -0.85228,0.42614 -2.01705,0.42614 z" style="font-weight:700;-inkscape-font-specification:'Inter Bold'" id="path1130"/><path d="m -378.33376,606.22193 v -1.90341 h 7.90909 v 1.90341 h -2.8125 v 6.82386 h -2.30682 v -6.82386 z" style="font-weight:700;-inkscape-font-specification:'Inter Bold'" id="path1132"/><path d="m -366.64057,609.85261 3.14205,-5.53409 h 2.38636 v 8.72727 h -2.30682 v -5.55113 l -3.13068,5.55113 h -2.40341 v -8.72727 h 2.3125 z" style="font-weight:700;-inkscape-font-specification:'Inter Bold'" id="path1134"/><path d="m -359.17465,613.04579 v -8.72727 h 2.42045 v 3.38636 h 0.68182 l 2.375,-3.38636 h 2.84091 l -3.08523,4.32955 3.11932,4.39772 h -2.875 l -2.15341,-3.09659 h -0.90341 v 3.09659 z" style="font-weight:700;-inkscape-font-specification:'Inter Bold'" id="path1136"/></g><g id="text1078" aria-label="Бумага" transform="matrix(0.23620505,0,0,0.23620502,184.5676,17.912684)" style="font-weight:300;font-size:16px;line-height:1.25;font-family:Inter;-inkscape-font-specification:'Inter Light';white-space:pre;shape-inside:url(#rect1080);display:inline;opacity:1;fill:#fff;stroke-width:11.0878;stroke-linecap:round;stroke-linejoin:round;stop-color:#000"><path d="m -418.30309,613.04579 v -11.63636 h 7.72159 v 2.02841 h -5.26136 v 2.27273 h 1.89204 q 1.38069,0 2.38069,0.44886 1.00568,0.44318 1.55113,1.25568 0.54546,0.8125 0.54546,1.91477 0,1.09659 -0.54546,1.9375 -0.54545,0.83523 -1.55113,1.30682 -1,0.47159 -2.38069,0.47159 z m 2.46023,-1.97727 h 1.89204 q 0.65909,0 1.11364,-0.23864 0.45455,-0.24431 0.6875,-0.64204 0.23864,-0.40341 0.23864,-0.88068 0,-0.69319 -0.52841,-1.17046 -0.52273,-0.48295 -1.51137,-0.48295 h -1.89204 z" style="font-weight:700;-inkscape-font-specification:'Inter Bold'" id="path1156"/><path d="m -406.43379,616.31852 q -0.46022,0 -0.86363,-0.0739 -0.39773,-0.0682 -0.65909,-0.17614 l 0.54545,-1.80682 q 0.42614,0.13068 0.76705,0.14205 0.34659,0.0114 0.59659,-0.15909 0.25568,-0.17046 0.41477,-0.57955 l 0.14205,-0.36932 -3.13069,-8.97727 h 2.54546 l 1.80682,6.40909 h 0.0909 l 1.82386,-6.40909 h 2.5625 l -3.39205,9.67045 q -0.24431,0.70455 -0.66477,1.22728 -0.41477,0.52841 -1.05113,0.8125 -0.63637,0.28977 -1.5341,0.28977 z" style="font-weight:700;-inkscape-font-specification:'Inter Bold'" id="path1158"/><path d="m -393.39401,610.36966 2.36363,-6.05114 h 1.84091 l -3.40341,8.72727 h -1.60795 l -3.32386,-8.72727 h 1.83522 z m -2.84659,-6.05114 v 8.72727 h -2.3125 v -8.72727 z m 5.8125,8.72727 v -8.72727 h 2.28409 v 8.72727 z" style="font-weight:700;-inkscape-font-specification:'Inter Bold'" id="path1160"/><path d="m -383.78038,613.21057 q -0.83523,0 -1.48864,-0.28978 -0.6534,-0.29545 -1.03409,-0.86932 -0.375,-0.57954 -0.375,-1.44318 0,-0.72727 0.26705,-1.22159 0.26704,-0.49432 0.72727,-0.79545 0.46023,-0.30114 1.04546,-0.45455 0.59091,-0.15341 1.23863,-0.21591 0.76137,-0.0795 1.22728,-0.14772 0.4659,-0.0739 0.67613,-0.21591 0.21023,-0.14205 0.21023,-0.42046 v -0.0341 q 0,-0.53977 -0.34091,-0.83523 -0.33523,-0.29545 -0.95455,-0.29545 -0.6534,0 -1.03977,0.28977 -0.38636,0.28409 -0.51136,0.71591 l -2.23864,-0.18182 q 0.17046,-0.79545 0.67046,-1.375 0.5,-0.58522 1.28977,-0.89772 0.79545,-0.31819 1.84091,-0.31819 0.72727,0 1.39204,0.17046 0.67046,0.17045 1.1875,0.52841 0.52273,0.35795 0.82387,0.92045 0.30113,0.55682 0.30113,1.33523 v 5.88636 h -2.29545 v -1.21022 h -0.0682 q -0.21023,0.40909 -0.5625,0.72159 -0.35228,0.30681 -0.84659,0.48295 -0.49432,0.17046 -1.14205,0.17046 z m 0.69318,-1.67046 q 0.53409,0 0.94318,-0.21023 0.4091,-0.21591 0.64205,-0.57954 0.23295,-0.36364 0.23295,-0.82387 v -0.92613 q -0.11363,0.0739 -0.3125,0.13636 -0.19318,0.0568 -0.4375,0.10796 -0.24431,0.0455 -0.48863,0.0852 -0.24432,0.0341 -0.44318,0.0625 -0.42614,0.0625 -0.74432,0.19887 -0.31818,0.13636 -0.49432,0.36932 -0.17614,0.22727 -0.17614,0.56818 0,0.49432 0.35796,0.75568 0.36363,0.25568 0.92045,0.25568 z" style="font-weight:700;-inkscape-font-specification:'Inter Bold'" id="path1162"/><path d="m -371.00765,604.31852 v 1.90341 h -3.625 v 6.82386 h -2.35228 v -8.72727 z" style="font-weight:700;-inkscape-font-specification:'Inter Bold'" id="path1164"/><path d="m -367.36564,613.21057 q -0.83523,0 -1.48864,-0.28978 -0.65341,-0.29545 -1.03409,-0.86932 -0.375,-0.57954 -0.375,-1.44318 0,-0.72727 0.26704,-1.22159 0.26705,-0.49432 0.72728,-0.79545 0.46022,-0.30114 1.04545,-0.45455 0.59091,-0.15341 1.23864,-0.21591 0.76136,-0.0795 1.22727,-0.14772 0.46591,-0.0739 0.67614,-0.21591 0.21022,-0.14205 0.21022,-0.42046 v -0.0341 q 0,-0.53977 -0.34091,-0.83523 -0.33522,-0.29545 -0.95454,-0.29545 -0.65341,0 -1.03977,0.28977 -0.38637,0.28409 -0.51137,0.71591 l -2.23863,-0.18182 q 0.17045,-0.79545 0.67045,-1.375 0.5,-0.58522 1.28977,-0.89772 0.79546,-0.31819 1.84091,-0.31819 0.72728,0 1.39205,0.17046 0.67045,0.17045 1.1875,0.52841 0.52273,0.35795 0.82386,0.92045 0.30114,0.55682 0.30114,1.33523 v 5.88636 h -2.29546 v -1.21022 h -0.0682 q -0.21023,0.40909 -0.5625,0.72159 -0.35227,0.30681 -0.84659,0.48295 -0.49432,0.17046 -1.14204,0.17046 z m 0.69318,-1.67046 q 0.53409,0 0.94318,-0.21023 0.40909,-0.21591 0.64204,-0.57954 0.23296,-0.36364 0.23296,-0.82387 v -0.92613 q -0.11364,0.0739 -0.3125,0.13636 -0.19318,0.0568 -0.4375,0.10796 -0.24432,0.0455 -0.48864,0.0852 -0.24432,0.0341 -0.44318,0.0625 -0.42614,0.0625 -0.74432,0.19887 -0.31818,0.13636 -0.49432,0.36932 -0.17613,0.22727 -0.17613,0.56818 0,0.49432 0.35795,0.75568 0.36364,0.25568 0.92046,0.25568 z" style="font-weight:700;-inkscape-font-specification:'Inter Bold'" id="path1166"/></g></g></svg>