<svg width="606.8" height="1e3" version="1.1" viewBox="0 0 160.55 264.59" xmlns="http://www.w3.org/2000/svg">
 <rect x="-.0019351" width="160.55" height="264.59" fill="none" stop-color="#000000"/>
 <g transform="matrix(.099599 0 0 .099599 -120.26 -167.99)" fill="#e6e6e6" stop-color="#000000" stroke-linecap="round" stroke-linejoin="round" stroke-width="26.296" style="shape-inside:url(#rect5566);white-space:pre" aria-label="Будьте с нами">
  <path d="m1816 3785.7v-41.684h25.991v5.414h-19.702v11.398h9.3219q4.6405 0 7.8767 1.5061 3.2566 1.5062 4.9663 4.2539 1.73 2.7477 1.73 6.4724t-1.73 6.5741q-1.7097 2.8495-4.9663 4.4575-3.2362 1.6079-7.8767 1.6079zm6.2892-5.2919h9.3219q2.6866 0 4.5388-1.0584 1.8725-1.0584 2.8291-2.7477 0.977-1.6894 0.977-3.6229 0-2.8088-2.1575-4.8238-2.1575-2.0353-6.1874-2.0353h-9.3219z"/>
  <path d="m1857 3797.5q-1.3637 0-2.4831-0.2239-1.1195-0.2036-1.669-0.4478l1.4654-4.9866q1.669 0.4478 2.9716 0.3867 1.3026-0.061 2.3-0.9769 1.0176-0.916 1.7911-2.992l0.753-2.0761-11.439-31.67h6.5131l7.9175 24.261h0.3257l7.9174-24.261h6.5335l-12.884 35.435q-0.8956 2.4424-2.2796 4.1318-1.384 1.7097-3.2973 2.5645-1.9132 0.8549-4.437 0.8549z"/>
  <path d="m1880 3794.8v-14.288h2.5442q0.9769-0.8955 1.6486-2.1371 0.692-1.2415 1.1601-2.9512 0.4885-1.7097 0.8142-3.9893 0.3256-2.2999 0.5699-5.2512l0.9769-11.662h21.249v25.991h4.8034v14.288h-5.9432v-9.0165h-21.798v9.0165zm9.0573-14.288h13.962v-20.781h-9.851l-0.6514 6.452q-0.4681 4.9255-1.1805 8.5485-0.7123 3.6025-2.2795 5.7803z"/>
  <path d="m1924.3 3765.2h9.0776q5.7397 0 8.8334 2.8495t3.0937 7.3476q0 2.9309-1.384 5.2715-1.384 2.3407-4.0503 3.7043-2.6663 1.3434-6.4928 1.3434h-13.657v-31.263h5.9635v26.012h7.6936q2.6256 0 4.315-1.3637 1.6893-1.384 1.6893-3.5211 0-2.2593-1.6893-3.684-1.6894-1.4451-4.315-1.4451h-9.0776z"/>
  <path d="m1947.1 3759.7v-5.2512h26.378v5.2512h-10.197v26.012h-5.9432v-26.012z"/>
  <path d="m1991.9 3786.4q-4.6202 0-7.9582-1.9743-3.3176-1.9946-5.1291-5.5972-1.7911-3.6229-1.7911-8.4873 0-4.8035 1.7911-8.4671 1.8115-3.6636 5.0477-5.7193 3.2565-2.0557 7.6122-2.0557 2.6459 0 5.129 0.8752 2.4832 0.8752 4.4575 2.7477 1.9742 1.8725 3.114 4.8645 1.1398 2.9716 1.1398 7.2255v2.1574h-24.852v-4.5591h18.888q0-2.4017-0.977-4.2539-0.977-1.8725-2.7477-2.9513-1.7504-1.0787-4.1114-1.0787-2.5645 0-4.4778 1.2619-1.8928 1.2416-2.9309 3.2566-1.0176 1.9946-1.0176 4.3353v3.5618q0 3.1344 1.099 5.3326 1.1195 2.1982 3.1141 3.3583 1.9947 1.1398 4.661 1.1398 1.73 0 3.1547-0.4885 1.4248-0.5088 2.4628-1.5061t1.5876-2.4628l5.76 1.0381q-0.692 2.5441-2.4831 4.4574-1.7708 1.8928-4.4574 2.9512-2.6663 1.038-6.0857 1.038z"/>
  <path d="m2040.5 3786.4q-4.5388 0-7.8157-2.0557-3.2565-2.076-5.0069-5.7193t-1.7504-8.3449q0-4.7627 1.7911-8.406 1.7911-3.6636 5.0476-5.7193 3.2566-2.0557 7.6733-2.0557 3.5618 0 6.3503 1.323 2.7884 1.3026 4.4981 3.6636 1.73 2.361 2.0557 5.5158h-5.9229q-0.4885-2.1982-2.2389-3.7857-1.73-1.5876-4.6406-1.5876-2.5441 0-4.4574 1.3433-1.8928 1.323-2.9512 3.7857-1.0584 2.4425-1.0584 5.7804 0 3.4194 1.038 5.9025 1.0381 2.4831 2.9309 3.8468 1.9133 1.3637 4.4981 1.3637 1.7301 0 3.1345-0.6309 1.4247-0.6514 2.3813-1.8522 0.977-1.2009 1.3637-2.8902h5.9229q-0.3257 3.0327-1.9743 5.414-1.6486 2.3814-4.4167 3.745-2.7477 1.3637-6.4521 1.3637z"/>
  <path d="m2096.2 3767.5v5.2716h-16.934v-5.2716zm-15.224-13.006v31.263h-5.9636v-31.263zm19.478 0v31.263h-5.9433v-31.263z"/>
  <path d="m2117.7 3786.4q-2.9716 0-5.3733-1.0991-2.4017-1.1194-3.8061-3.2362-1.384-2.1168-1.384-5.1901 0-2.646 1.0176-4.3557 1.0177-1.7096 2.7478-2.707 1.73-0.9973 3.8671-1.5061 2.1371-0.5089 4.3556-0.7735 2.8088-0.3256 4.5592-0.5291 1.7504-0.2239 2.5442-0.7124t0.7938-1.5876v-0.1425q0-2.6663-1.5062-4.1317-1.4858-1.4655-4.437-1.4655-3.0734 0-4.8441 1.3637-1.7504 1.3434-2.4221 2.992l-5.7193-1.3026q1.0176-2.8495 2.9716-4.5999 1.9743-1.7708 4.5388-2.5645 2.5645-0.8142 5.3937-0.8142 1.8725 0 3.9689 0.4478 2.1167 0.4274 3.9486 1.5876 1.8521 1.1601 3.0326 3.3176 1.1805 2.1371 1.1805 5.5565v20.76h-5.9432v-4.2742h-0.2442q-0.5903 1.1805-1.7708 2.3202-1.1805 1.1398-3.0326 1.8929-1.8522 0.7531-4.4371 0.7531zm1.323-4.8848q2.5238 0 4.3149-0.9974 1.8115-0.9973 2.7477-2.6052 0.9566-1.6283 0.9566-3.4804v-4.03q-0.3256 0.3256-1.2619 0.6106-0.9159 0.2646-2.0964 0.4681-1.1805 0.1832-2.2999 0.346-1.1195 0.1425-1.8725 0.2443-1.7708 0.2239-3.2362 0.753-1.4451 0.5292-2.3203 1.5266-0.8549 0.9769-0.8549 2.6052 0 2.2592 1.669 3.4194 1.669 1.1398 4.2539 1.1398z"/>
  <path d="m2158.8 3778.2 10.095-23.732h5.2512l-13.087 31.263h-4.5184l-12.823-31.263h5.1901zm-11.581-23.732v31.263h-5.9636v-31.263zm23.325 31.263v-31.263h5.9229v31.263z"/>
  <path d="m2190.5 3777.2 13.779-22.735h6.5538v31.263h-5.9635v-22.755l-13.718 22.755h-6.6149v-31.263h5.9636z"/>
 </g>
 <path d="m40.268 213.83h0.62033v3.0489h0.0385l2.1123-3.0489h0.57979v4.1517h-0.62642v-3.0448h-0.0385l-2.1083 3.0448h-0.57775z" fill="#fff" stroke-linecap="round" stroke-linejoin="round" stroke-width="2.619" style="white-space:pre"/>
 <path d="m46.592 216.17v0.52505h-1.6866v-0.52505zm-1.5164-1.2954v3.1138h-0.59395v-3.1138zm1.94 0v3.1138h-0.59192v-3.1138z" fill="#fff" stroke-linecap="round" stroke-linejoin="round" stroke-width="2.619" style="white-space:pre"/>
 <path d="m49.165 219.04v-5.2119h0.60614v5.2119zm0-0.99737q-0.33042 0-0.60207-0.11352-0.27163-0.11553-0.46827-0.32841-0.19663-0.21284-0.30407-0.50881-0.10541-0.29596-0.10541-0.65478 0-0.36285 0.10541-0.65882 0.10744-0.29598 0.30407-0.50884 0.19664-0.21283 0.46827-0.32839 0.27165-0.11555 0.60207-0.11555h0.15002v3.2171zm0-0.51083h0.0851v-2.1954h-0.0851q-0.21893 0-0.3811 0.0892-0.16216 0.0872-0.26961 0.24124-0.10743 0.15203-0.16217 0.35071-0.0527 0.19866-0.0527 0.41962 0 0.29597 0.0953 0.54533 0.0953 0.24731 0.28785 0.39934 0.19259 0.15002 0.48246 0.15002zm0.60614 0.51083h-0.15203v-3.2171h0.15203q0.33044 0 0.60207 0.11555 0.27163 0.11556 0.46624 0.32839 0.19665 0.21286 0.30206 0.50884 0.10744 0.29597 0.10744 0.65882 0 0.35882-0.10744 0.65478-0.10541 0.29597-0.30206 0.50881-0.19461 0.21288-0.46624 0.32841-0.27163 0.11352-0.60207 0.11352zm0-0.51083q0.21893 0 0.3811-0.0852 0.16217-0.0872 0.26963-0.2392 0.10742-0.15407 0.16015-0.35071 0.0527-0.19865 0.0527-0.41962 0-0.29394-0.0953-0.54328-0.0933-0.25137-0.28583-0.4034-0.1926-0.15406-0.48247-0.15406h-0.0872v2.1954z" fill="#fff" stroke-linecap="round" stroke-linejoin="round" stroke-width="2.619" style="white-space:pre"/>
 <path d="m53.236 218.05q-0.43788 0-0.76423-0.20069-0.32639-0.20069-0.50681-0.56153-0.18042-0.36083-0.18042-0.8433 0-0.48448 0.18042-0.84735t0.50681-0.56356q0.32635-0.20069 0.76423-0.20069t0.76425 0.20069 0.50678 0.56356q0.18042 0.36287 0.18042 0.84735 0 0.48247-0.18042 0.8433-0.18041 0.36084-0.50678 0.56153t-0.76425 0.20069zm2e-3 -0.50882q0.28378 0 0.47028-0.15 0.1865-0.15001 0.2757-0.39937 0.0912-0.24934 0.0912-0.54937 0-0.29797-0.0912-0.54733-0.0892-0.25136-0.2757-0.40341-0.1865-0.15203-0.47028-0.15203-0.28585 0-0.47439 0.15203-0.1865 0.15205-0.27771 0.40341-0.0892 0.24936-0.0892 0.54733 0 0.30003 0.0892 0.54937 0.0912 0.24936 0.27771 0.39937 0.18854 0.15 0.47439 0.15z" fill="#fff" stroke-linecap="round" stroke-linejoin="round" stroke-width="2.619" style="white-space:pre"/>
 <path d="m55.362 219.15v-4.2814h0.59194v0.50476h0.0506q0.0527-0.0973 0.15203-0.22501 0.0993-0.12772 0.27571-0.22299 0.17636-0.0973 0.46624-0.0973 0.37706 0 0.67304 0.19054 0.29597 0.19057 0.46423 0.54937 0.17027 0.35882 0.17027 0.8636 0 0.50475-0.16827 0.86559-0.16825 0.35882-0.46219 0.55341-0.29394 0.19258-0.67098 0.19258-0.28382 0-0.46423-0.0953-0.17839-0.0953-0.27975-0.223-0.10136-0.12771-0.1561-0.22704h-0.0365v1.6521zm0.59396-2.7245q0 0.3284 0.0953 0.57571 0.0953 0.24733 0.2757 0.3872 0.18042 0.13785 0.44192 0.13785 0.27164 0 0.45409-0.14394 0.18245-0.14594 0.2757-0.3953 0.0953-0.24934 0.0953-0.56152 0-0.30813-0.0933-0.55341-0.0912-0.24531-0.27569-0.3872-0.18245-0.1419-0.45613-0.1419-0.26353 0-0.44597 0.13583-0.18043 0.13581-0.27369 0.37908-0.0932 0.24326-0.0932 0.5676z" fill="#fff" stroke-linecap="round" stroke-linejoin="round" stroke-width="2.619" style="white-space:pre"/>
 <path d="m60.633 217.23 1.0055-2.3637h0.52301l-1.3035 3.1138h-0.45004l-1.2771-3.1138h0.51692zm-1.1534-2.3637v3.1138h-0.59395v-3.1138zm2.3231 3.1138v-3.1138h0.58991v3.1138z" fill="#fff" stroke-linecap="round" stroke-linejoin="round" stroke-width="2.619" style="white-space:pre"/>
 <path d="m64.107 218.05q-0.29597 0-0.53518-0.10945-0.2392-0.11151-0.37907-0.32233-0.13786-0.21083-0.13786-0.51693 0-0.26354 0.10136-0.43381 0.10136-0.1703 0.27367-0.26962 0.17232-0.0993 0.38515-0.15 0.21287-0.0507 0.43383-0.077 0.27975-0.0324 0.45408-0.0527 0.17435-0.0223 0.2534-0.071 0.079-0.0486 0.079-0.15813v-0.0142q0-0.26555-0.15-0.4115-0.14799-0.14598-0.44193-0.14598-0.30611 0-0.48246 0.13583-0.17434 0.13379-0.24124 0.298l-0.56964-0.12974q0.10136-0.28379 0.29597-0.45814 0.19663-0.17636 0.45206-0.25542 0.25543-0.0811 0.53721-0.0811 0.18649 0 0.3953 0.0446 0.21081 0.0426 0.39326 0.15812 0.18446 0.11552 0.30205 0.33041 0.11757 0.21287 0.11757 0.55341v2.0678h-0.59192v-0.42572h-0.0243q-0.0587 0.11758-0.17636 0.2311-0.11758 0.11352-0.30204 0.18853-0.18449 0.075-0.44193 0.075zm0.13175-0.48652q0.25139 0 0.42977-0.0993 0.18042-0.0993 0.27367-0.25949 0.0953-0.16216 0.0953-0.34664v-0.40138q-0.0325 0.0324-0.12569 0.0608-0.0912 0.0264-0.20881 0.0466-0.11756 0.0182-0.22906 0.0345-0.11149 0.0142-0.18651 0.0243-0.17637 0.0223-0.32232 0.075-0.14392 0.0528-0.23109 0.15203-0.0851 0.0973-0.0851 0.2595 0 0.22501 0.1662 0.34056 0.16625 0.11352 0.42368 0.11352z" fill="#fff" stroke-linecap="round" stroke-linejoin="round" stroke-width="2.619" style="white-space:pre"/>
 <path d="m68.991 214.87v2.6171h0.45612v1.5001h-0.59803v-1.0034h-2.3982v-3.1138h0.59395v2.5907h1.3542v-2.5907z" fill="#fff" stroke-linecap="round" stroke-linejoin="round" stroke-width="2.619" style="white-space:pre"/>
 <path d="m70.712 217.13 1.3724-2.2644h0.65275v3.1138h-0.59398v-2.2664l-1.3663 2.2664h-0.65884v-3.1138h0.59395z" fill="#fff" stroke-linecap="round" stroke-linejoin="round" stroke-width="2.619" style="white-space:pre"/>
 <path d="m75.409 217.98v-2.5968h-0.74601q-0.26556 0-0.41354 0.12365-0.14799 0.12367-0.14799 0.32436 0 0.19865 0.13581 0.32029 0.13786 0.11959 0.38517 0.11959h0.96291v0.49059h-0.96291q-0.3446 0-0.59599-0.11352-0.24935-0.11555-0.38515-0.3264-0.13379-0.21081-0.13379-0.49867 0-0.29394 0.13784-0.50681 0.13987-0.21486 0.39934-0.33244 0.26151-0.11758 0.6183-0.11758h1.3156v3.1138zm-2.0434 0 0.87777-1.5731h0.62031l-0.87777 1.5731z" fill="#fff" stroke-linecap="round" stroke-linejoin="round" stroke-width="2.619" style="white-space:pre"/>
 <path d="m78.3 217.98v-3.1138h1.2913q0.52705 0 0.83518 0.22501 0.30814 0.223 0.30814 0.60614 0 0.27367-0.17436 0.43381-0.17432 0.16015-0.46218 0.21489 0.20878 0.0243 0.38312 0.12568 0.17436 0.0993 0.27977 0.26758 0.10742 0.16826 0.10742 0.40138 0 0.24732-0.12769 0.43788-0.12771 0.18851-0.37098 0.29596-0.24124 0.10543-0.58181 0.10543zm0.56961-0.50682h0.91831q0.22504 0 0.35275-0.10744 0.12769-0.10744 0.12769-0.2919 0-0.21692-0.12769-0.34057-0.12771-0.12568-0.35275-0.12568h-0.91831zm0-1.3095h0.72775q0.1703 0 0.29193-0.0486 0.12367-0.0486 0.18853-0.13784 0.0669-0.0912 0.0669-0.21488 0-0.18042-0.148-0.28178-0.14798-0.10136-0.40542-0.10136h-0.72169z" fill="#fff" stroke-linecap="round" stroke-linejoin="round" stroke-width="2.619" style="white-space:pre"/>
 <path d="m84.355 218.05q-0.45208 0-0.77845-0.20473-0.32435-0.20677-0.49869-0.56964-0.17432-0.36287-0.17432-0.83115 0-0.47436 0.17838-0.83722 0.17839-0.36489 0.50274-0.56965 0.32434-0.20473 0.76424-0.20473 0.35475 0 0.63249 0.13176 0.27773 0.12975 0.448 0.3649 0.1723 0.23516 0.20473 0.54937h-0.58989q-0.0486-0.21895-0.22299-0.37707-0.1723-0.1581-0.4622-0.1581-0.25339 0-0.44396 0.13379-0.18851 0.13176-0.29391 0.37704-0.10544 0.24327-0.10544 0.57572 0 0.34056 0.10338 0.58787 0.10339 0.24732 0.29193 0.38315 0.19056 0.13583 0.448 0.13583 0.17231 0 0.31218-0.0629 0.14191-0.0649 0.23719-0.18446 0.0973-0.11961 0.13582-0.28787h0.58989q-0.0324 0.30203-0.19662 0.53923-0.16421 0.23719-0.43989 0.37301-0.27367 0.1358-0.64261 0.1358z" fill="#fff" stroke-linecap="round" stroke-linejoin="round" stroke-width="2.619" style="white-space:pre"/>
 <path d="m87.596 218.05q-0.43786 0-0.76425-0.20069-0.32637-0.20069-0.50679-0.56153-0.18042-0.36083-0.18042-0.8433 0-0.48448 0.18042-0.84735t0.50679-0.56356q0.32639-0.20069 0.76425-0.20069 0.43788 0 0.76424 0.20069 0.32638 0.20069 0.50679 0.56356 0.18045 0.36287 0.18045 0.84735 0 0.48247-0.18045 0.8433-0.18041 0.36084-0.50679 0.56153-0.32636 0.20069-0.76424 0.20069zm2e-3 -0.50882q0.28381 0 0.47031-0.15 0.1865-0.15001 0.27568-0.39937 0.0912-0.24934 0.0912-0.54937 0-0.29797-0.0912-0.54733-0.0892-0.25136-0.27568-0.40341-0.1865-0.15203-0.47031-0.15203-0.28582 0-0.47436 0.15203-0.18649 0.15205-0.27773 0.40341-0.0892 0.24936-0.0892 0.54733 0 0.30003 0.0892 0.54937 0.0912 0.24936 0.27773 0.39937 0.18854 0.15 0.47436 0.15z" fill="#fff" stroke-linecap="round" stroke-linejoin="round" stroke-width="2.619" style="white-space:pre"/>
 <path d="m91.034 218.05q-0.43787 0-0.76426-0.20069-0.32637-0.20069-0.50679-0.56153-0.18041-0.36083-0.18041-0.8433 0-0.48448 0.18041-0.84735 0.18042-0.36287 0.50679-0.56356 0.32639-0.20069 0.76426-0.20069t0.76424 0.20069 0.50679 0.56356 0.18042 0.84735q0 0.48247-0.18042 0.8433-0.18042 0.36084-0.50679 0.56153t-0.76424 0.20069zm2e-3 -0.50882q0.28382 0 0.47029-0.15 0.18653-0.15001 0.27571-0.39937 0.0912-0.24934 0.0912-0.54937 0-0.29797-0.0912-0.54733-0.0892-0.25136-0.27571-0.40341-0.18647-0.15203-0.47029-0.15203-0.28582 0-0.47435 0.15203-0.1865 0.15205-0.27772 0.40341-0.0892 0.24936-0.0892 0.54733 0 0.30003 0.0892 0.54937 0.0912 0.24936 0.27772 0.39937 0.18853 0.15 0.47435 0.15z" fill="#fff" stroke-linecap="round" stroke-linejoin="round" stroke-width="2.619" style="white-space:pre"/>
 <path d="m95.563 213.71 0.25136 0.38313q-0.13987 0.12772-0.31826 0.18246-0.17637 0.0527-0.40746 0.0669-0.23108 0.0122-0.52909 0.0222-0.33652 0.01-0.55342 0.14598-0.21691 0.13379-0.33448 0.39731-0.11555 0.26151-0.15002 0.65681h0.0385q0.15203-0.28987 0.42163-0.43381 0.27165-0.14394 0.61019-0.14394 0.37706 0 0.67099 0.1723 0.29394 0.17233 0.4622 0.50478 0.17029 0.33044 0.17029 0.80884 0 0.4845-0.1784 0.83723-0.17635 0.35272-0.4987 0.54531-0.32029 0.19055-0.75612 0.19055-0.43584 0-0.7602-0.19665-0.3223-0.19865-0.5007-0.58788-0.17635-0.3892-0.17635-0.96086v-0.30814q0-1.0683 0.38108-1.6076 0.38111-0.53922 1.1393-0.55341 0.2453-6e-3 0.43788-2e-3 0.19257 2e-3 0.3365-0.0182 0.14597-0.0222 0.24327-0.10135zm-1.0987 3.8273q0.25339 0 0.43582-0.12771 0.18449-0.12973 0.28381-0.36692 0.0993-0.23719 0.0993-0.55949 0-0.31624-0.0993-0.53721-0.0993-0.22096-0.28381-0.33652-0.18446-0.11756-0.44192-0.11756-0.19054 0-0.34057 0.0669-0.15 0.0649-0.25743 0.19258-0.10542 0.12771-0.16422 0.31218-0.0568 0.18245-0.0608 0.41964 0 0.48247 0.22096 0.76829 0.223 0.28583 0.60817 0.28583z" fill="#fff" stroke-linecap="round" stroke-linejoin="round" stroke-width="2.619" style="white-space:pre"/>
 <path d="m101.03 217.46-0.0567 1.415h-0.59398v-0.89194h-0.38718v-0.52302zm-4.4618-2.5907h0.59396v2.5887h1.0764v-2.5887h0.59396v2.5887h1.0764v-2.5887h0.59396v3.1138h-3.9347z" fill="#fff" stroke-linecap="round" stroke-linejoin="round" stroke-width="2.619" style="white-space:pre"/>
 <path d="m102.98 218.05q-0.46019 0-0.79264-0.19664-0.33043-0.19866-0.51083-0.55746-0.17841-0.36084-0.17841-0.84534 0-0.4784 0.17841-0.8433 0.1804-0.36489 0.50272-0.56965 0.32436-0.20473 0.75817-0.20473 0.26354 0 0.51086 0.0872 0.24731 0.0872 0.44394 0.27366 0.19664 0.1865 0.31016 0.48449 0.11352 0.29597 0.11352 0.71966v0.21488h-2.4752v-0.45408h1.8812q0-0.23923-0.0973-0.42369-0.0973-0.1865-0.27368-0.29394-0.17432-0.10744-0.40947-0.10744-0.25543 0-0.446 0.12568-0.18851 0.12367-0.2919 0.32435-0.10137 0.19866-0.10137 0.43178v0.35476q0 0.3122 0.10946 0.53113 0.11151 0.21893 0.31016 0.33449 0.19869 0.11352 0.46424 0.11352 0.1723 0 0.31421-0.0486 0.1419-0.0507 0.24528-0.15002 0.10339-0.0993 0.15814-0.24529l0.57368 0.1034q-0.0689 0.2534-0.24732 0.44396-0.17636 0.18851-0.44395 0.29394-0.26556 0.10337-0.60612 0.10337z" fill="#fff" stroke-linecap="round" stroke-linejoin="round" stroke-width="2.619" style="white-space:pre"/>
 <path d="m106.3 218.05q-0.45205 0-0.77844-0.20473-0.32434-0.20677-0.49868-0.56964-0.17433-0.36287-0.17433-0.83115 0-0.47436 0.17838-0.83722 0.1784-0.36489 0.50274-0.56965 0.32436-0.20473 0.76425-0.20473 0.35476 0 0.63247 0.13176 0.27773 0.12975 0.44801 0.3649 0.17232 0.23516 0.20475 0.54937h-0.58991q-0.0486-0.21895-0.223-0.37707-0.1723-0.1581-0.46218-0.1581-0.25339 0-0.44395 0.13379-0.18853 0.13176-0.29394 0.37704-0.10541 0.24327-0.10541 0.57572 0 0.34056 0.10338 0.58787 0.10339 0.24732 0.29192 0.38315 0.19054 0.13583 0.448 0.13583 0.17231 0 0.31219-0.0629 0.14188-0.0649 0.23718-0.18446 0.0973-0.11961 0.13581-0.28787h0.58991q-0.0324 0.30203-0.19664 0.53923-0.1642 0.23719-0.43989 0.37301-0.27367 0.1358-0.64262 0.1358z" fill="#fff" stroke-linecap="round" stroke-linejoin="round" stroke-width="2.619" style="white-space:pre"/>
 <path d="m108 215.39v-0.52302h2.6272v0.52302h-1.0156v2.5907h-0.59194v-2.5907z" fill="#fff" stroke-linecap="round" stroke-linejoin="round" stroke-width="2.619" style="white-space:pre"/>
 <path d="m111.27 217.98v-3.1138h1.2913q0.52706 0 0.83519 0.22501 0.30813 0.223 0.30813 0.60614 0 0.27367-0.17431 0.43381-0.17436 0.16015-0.46222 0.21489 0.2088 0.0243 0.38314 0.12568 0.17434 0.0993 0.27974 0.26758 0.10744 0.16826 0.10744 0.40138 0 0.24732-0.12771 0.43788-0.12771 0.18851-0.37096 0.29596-0.24124 0.10543-0.5818 0.10543zm0.56964-0.50682h0.91831q0.22501 0 0.35272-0.10744 0.12772-0.10744 0.12772-0.2919 0-0.21692-0.12772-0.34057-0.12771-0.12568-0.35272-0.12568h-0.91831zm0-1.3095h0.72775q0.17029 0 0.29192-0.0486 0.12365-0.0486 0.18852-0.13784 0.0669-0.0912 0.0669-0.21488 0-0.18042-0.14798-0.28178-0.14799-0.10136-0.40542-0.10136h-0.72168z" fill="#fff" stroke-linecap="round" stroke-linejoin="round" stroke-width="2.619" style="white-space:pre"/>
 <path d="m115.41 218.05q-0.29595 0-0.53515-0.10945-0.23922-0.11151-0.3791-0.32233-0.13784-0.21083-0.13784-0.51693 0-0.26354 0.10137-0.43381 0.10133-0.1703 0.27366-0.26962 0.17231-0.0993 0.38515-0.15 0.21288-0.0507 0.43381-0.077 0.27975-0.0324 0.45411-0.0527 0.17434-0.0223 0.25339-0.071 0.079-0.0486 0.079-0.15813v-0.0142q0-0.26555-0.15002-0.4115-0.14796-0.14598-0.44192-0.14598-0.3061 0-0.48245 0.13583-0.17434 0.13379-0.24123 0.298l-0.56965-0.12974q0.10137-0.28379 0.29598-0.45814 0.19662-0.17636 0.45205-0.25542 0.25543-0.0811 0.53718-0.0811 0.1865 0 0.39533 0.0446 0.21081 0.0426 0.39327 0.15812 0.18446 0.11552 0.30203 0.33041 0.11759 0.21287 0.11759 0.55341v2.0678h-0.59195v-0.42572h-0.0244q-0.0588 0.11758-0.17637 0.2311t-0.30203 0.18853q-0.18449 0.075-0.44195 0.075zm0.13178-0.48652q0.25136 0 0.42977-0.0993 0.18041-0.0993 0.27366-0.25949 0.0953-0.16216 0.0953-0.34664v-0.40138q-0.0325 0.0324-0.12571 0.0608-0.0912 0.0264-0.20878 0.0466-0.11758 0.0182-0.22907 0.0345-0.11149 0.0142-0.1865 0.0243-0.17638 0.0223-0.32233 0.075-0.14392 0.0528-0.23111 0.15203-0.0851 0.0973-0.0851 0.2595 0 0.22501 0.16622 0.34056 0.16625 0.11352 0.42369 0.11352z" fill="#fff" stroke-linecap="round" stroke-linejoin="round" stroke-width="2.619" style="white-space:pre"/>
 <path d="m118.23 214.87 0.68721 1.2123 0.69328-1.2123h0.66289l-0.97099 1.5569 0.97911 1.5569h-0.66289l-0.7014-1.1636-0.69936 1.1636h-0.66493l0.96899-1.5569-0.95683-1.5569z" fill="#fff" stroke-linecap="round" stroke-linejoin="round" stroke-width="2.619" style="white-space:pre"/>
 <g transform="matrix(.47061 0 0 .47061 -789.98 -1657.6)" fill="#fff" stop-color="#000000" stroke-linecap="round" stroke-linejoin="round" stroke-width="5.5652" style="shape-inside:url(#rect7044);white-space:pre" aria-label="#blago">
  <path d="m1818.4 3752.3 2.5328-15.438h3.0153l-2.5328 15.438zm-6.8447-3.5278 0.5126-3.0153h12.423l-0.5126 3.0153zm1.4172 3.5278 2.5329-15.438h3.0152l-2.5328 15.438zm-0.5427-8.895 0.5126-3.0153h12.423l-0.5126 3.0153z"/>
  <path d="m1826.5 3752.3v-15.438h4.1611v5.8798h0.06q0.2262-0.588 0.6634-1.0779 0.4372-0.4976 1.0855-0.7916 0.6483-0.3015 1.5076-0.3015 1.1458 0 2.1785 0.6106 1.0403 0.6106 1.6886 1.9222 0.6558 1.3117 0.6558 3.4073 0 2.0052-0.6257 3.3243-0.6181 1.3192-1.6584 1.9675-1.0327 0.6483-2.2689 0.6483-0.8142 0-1.4549-0.2639-0.6332-0.2713-1.0855-0.7312-0.4448-0.4673-0.686-1.0553h-0.09v1.8996zm4.0707-5.7893q0 0.8443 0.2186 1.4624 0.2261 0.6106 0.6332 0.9498 0.4146 0.3317 0.9875 0.3317t0.9724-0.3241q0.4071-0.3317 0.6181-0.9423 0.2186-0.6181 0.2186-1.4775t-0.2186-1.4699q-0.211-0.6182-0.6181-0.9423-0.3995-0.3317-0.9724-0.3317t-0.9875 0.3317q-0.4071 0.3241-0.6332 0.9423-0.2186 0.6105-0.2186 1.4699z"/>
  <path d="m1844.4 3736.9v15.438h-4.161v-15.438z"/>
  <path d="m1849.8 3752.5q-1.1082 0-1.96-0.3618-0.8443-0.3694-1.3267-1.1156-0.4824-0.7463-0.4824-1.8997 0-0.9498 0.3241-1.6207 0.3241-0.6784 0.9046-1.1081 0.5804-0.4297 1.3493-0.6558 0.7765-0.2262 1.6735-0.294 0.9724-0.075 1.5604-0.1809 0.5955-0.1131 0.8593-0.3091 0.2639-0.2035 0.2639-0.5352v-0.03q0-0.4523-0.3468-0.6936-0.3467-0.2412-0.8895-0.2412-0.5955 0-0.9724 0.2639-0.3694 0.2563-0.4448 0.7915h-3.8293q0.075-1.0554 0.6709-1.9449 0.603-0.897 1.7563-1.4322 1.1534-0.5428 2.8796-0.5428 1.2438 0 2.2313 0.294 0.9875 0.2865 1.681 0.8066 0.6936 0.5126 1.0554 1.2061 0.3694 0.686 0.3694 1.4926v7.9301h-3.8897v-1.6282h-0.091q-0.3468 0.6483-0.8443 1.0478-0.49 0.3995-1.1232 0.5804-0.6256 0.1809-1.3794 0.1809zm1.3568-2.6233q0.4749 0 0.8895-0.1959 0.4222-0.196 0.686-0.5654t0.2638-0.8971v-0.9648q-0.1658 0.068-0.3543 0.1281-0.1809 0.06-0.3919 0.1131-0.2036 0.053-0.4373 0.098-0.2261 0.045-0.4749 0.083-0.4824 0.075-0.7915 0.2488-0.3015 0.1658-0.4523 0.4146-0.1432 0.2412-0.1432 0.5427 0 0.4825 0.3392 0.7388 0.3393 0.2562 0.8669 0.2562z"/>
  <path d="m1864.7 3756.9q-1.7413 0-2.9851-0.4975-1.2363-0.49-1.9222-1.3569-0.6785-0.8593-0.7614-1.975h4.0103q0.06 0.3694 0.3015 0.5956 0.2413 0.2261 0.6182 0.3241 0.3844 0.1055 0.8593 0.1055 0.8066 0 1.3343-0.392 0.5352-0.3919 0.5352-1.4171v-1.96h-0.1206q-0.2262 0.588-0.6935 1.0026-0.4674 0.4071-1.1232 0.6257-0.6559 0.2111-1.4398 0.2111-1.2363 0-2.2766-0.5729-1.0327-0.5729-1.6583-1.8167-0.6182-1.2438-0.6182-3.249 0-2.0956 0.6483-3.4073 0.6558-1.3116 1.6886-1.9222 1.0402-0.6106 2.186-0.6106 0.8594 0 1.5077 0.3015 0.6482 0.294 1.0855 0.7916 0.4372 0.4899 0.6633 1.0779h0.09v-2.0202h4.161v11.548q0 1.4699-0.7613 2.4951-0.7538 1.0327-2.1258 1.5755-1.3719 0.5427-3.2037 0.5427zm0.1508-7.6889q0.5729 0 0.9799-0.3166 0.4146-0.3242 0.6332-0.9197 0.2262-0.603 0.2262-1.4473 0-0.8594-0.2262-1.4699-0.2186-0.6182-0.6332-0.9423-0.407-0.3317-0.9799-0.3317t-0.98 0.3317q-0.3995 0.3241-0.6181 0.9423-0.2111 0.6105-0.2111 1.4699t0.2111 1.4624q0.2186 0.5955 0.6181 0.9121 0.4071 0.3091 0.98 0.3091z"/>
  <path d="m1878.4 3752.6q-1.8846 0-3.2264-0.7463-1.3418-0.7538-2.0579-2.0956-0.7161-1.3493-0.7161-3.1283 0-1.7791 0.7161-3.1209 0.7161-1.3493 2.0579-2.0956 1.3418-0.7538 3.2264-0.7538 1.8845 0 3.2263 0.7538 1.3418 0.7463 2.0579 2.0956 0.7162 1.3418 0.7162 3.1209 0 1.779-0.7162 3.1283-0.7161 1.3418-2.0579 2.0956-1.3418 0.7463-3.2263 0.7463zm0.03-3.0756q0.5277 0 0.9121-0.3543 0.3845-0.3543 0.5956-1.0101 0.211-0.6558 0.211-1.5604 0-0.9121-0.211-1.5604-0.2111-0.6558-0.5956-1.0101-0.3844-0.3543-0.9121-0.3543-0.5578 0-0.9573 0.3543t-0.6106 1.0101q-0.2111 0.6483-0.2111 1.5604 0 0.9046 0.2111 1.5604t0.6106 1.0101 0.9573 0.3543z"/>
 </g>
 <g transform="matrix(.21407 0 0 .21407 -373.13 -630.61)" fill="#fff" stroke-linecap="round" stroke-linejoin="round">
  <g transform="matrix(1.2165 0 0 1.2165 -374.3 -850.94)" stop-color="#000000" stroke-width="10.057" style="shape-inside:url(#rect4730);white-space:pre" aria-label="на TON ">
   <path d="m1869.2 3808.6v19.242h-36.056v-19.242zm-26.902-25.968v71.739h-24.287v-71.739zm42.035 0v71.739h-24.1v-71.739z"/>
   <path d="m1916.6 3855.5q-6.8656 0-12.143-2.2418-5.231-2.2886-8.2202-6.9124-2.9891-4.6238-2.9891-11.77 0-5.8849 2.0083-10.042 2.0084-4.2035 5.6047-6.8657t8.3602-4.0634q4.8106-1.4011 10.369-1.8215 6.0249-0.467 9.668-1.1209 3.6897-0.7006 5.3244-1.9149 1.6346-1.2611 1.6346-3.3161v-0.1868q0-2.8023-2.1484-4.2969t-5.5112-1.4946q-3.6897 0-6.025 1.6347-2.2886 1.588-2.7556 4.9041h-23.726q0.4671-6.5388 4.1568-12.05 3.7364-5.5579 10.882-8.874 7.1459-3.3628 17.841-3.3628 7.7064 0 13.825 1.8215 6.1184 1.7748 10.415 4.9975 4.2969 3.176 6.5388 7.4728 2.2885 4.2502 2.2885 9.2477v49.134h-24.1v-10.088h-0.5604q-2.1485 4.0166-5.231 6.492-3.0359 2.4754-6.9591 3.5963-3.8765 1.1209-8.5471 1.1209zm8.407-16.253q2.9424 0 5.5112-1.2143 2.6155-1.2144 4.2502-3.5029 1.6347-2.2886 1.6347-5.5579v-5.9783q-1.0276 0.4203-2.1952 0.794-1.1209 0.3736-2.4287 0.7005-1.261 0.327-2.7089 0.6072-1.4011 0.2802-2.9424 0.5138-2.9891 0.467-4.9041 1.5412-1.8682 1.0276-2.8023 2.5688-0.8874 1.4946-0.8874 3.3628 0 2.9892 2.1018 4.5771 2.1017 1.588 5.3711 1.588z"/>
   <path d="m1997.5 3779.7v-20.924h83.135v20.924h-28.77v74.728h-25.594v-74.728z"/>
   <path d="m2178.6 3806.6q0 15.973-6.2118 26.949-6.2118 10.929-16.767 16.58-10.555 5.6047-23.539 5.6047-13.078 0-23.633-5.6514-10.509-5.698-16.72-16.627-6.1651-10.976-6.1651-26.856 0-15.973 6.1651-26.902 6.2118-10.976 16.72-16.58 10.555-5.6513 23.633-5.6513 12.984 0 23.539 5.6513 10.555 5.6047 16.767 16.58 6.2118 10.929 6.2118 26.902zm-26.715 0q0-8.5937-2.2886-14.479-2.2418-5.9316-6.6788-8.9674-4.3903-3.0826-10.836-3.0826-6.4454 0-10.882 3.0826-4.3902 3.0358-6.6788 8.9674-2.2419 5.8849-2.2419 14.479 0 8.5938 2.2419 14.525 2.2886 5.8848 6.6788 8.9674 4.437 3.0358 10.882 3.0358 6.4453 0 10.836-3.0358 4.437-3.0826 6.6788-8.9674 2.2886-5.9316 2.2886-14.525z"/>
   <path d="m2273.3 3758.8v95.652h-21.671l-34.562-50.255h-0.5605v50.255h-25.968v-95.652h22.045l34.001 50.068h0.7473v-50.068z"/>
  </g>
  <g transform="matrix(2.1984 0 0 2.1984 -2073.4 -4617.5)" stop-color="#000000" stroke-width="5.5652" style="shape-inside:url(#rect5586);white-space:pre" aria-label="ДАО Градосфера">
   <path d="m1811.9 3756v-6.9351h1.0855q0.5427-0.3317 0.9799-0.9348 0.4448-0.603 0.7539-1.7262 0.3166-1.1232 0.4673-3.0077l0.5126-6.5432h10.915v12.212h1.6282v6.9351h-4.0404v-3.7088h-8.2619v3.7088zm5.8798-6.9351h4.7942v-8.8348h-3.1057l-0.2412 3.1661q-0.1055 1.4171-0.3242 2.48-0.211 1.0554-0.505 1.8393-0.2865 0.7765-0.6181 1.3494z"/>
   <path d="m1833.7 3752.3h-4.5229l5.0958-15.438h5.729l5.0959 15.438h-4.523l-3.3771-11.187h-0.1206zm-0.8442-6.0908h8.503v3.1359h-8.503z"/>
   <path d="m1860.8 3744.6q0 2.5781-1.0026 4.3496-1.0025 1.7639-2.7062 2.676-1.7036 0.9046-3.7992 0.9046-2.1107 0-3.8143-0.9121-1.6961-0.9197-2.6987-2.6836-0.995-1.7715-0.995-4.3345 0-2.578 0.995-4.342 1.0026-1.7714 2.6987-2.676 1.7036-0.9121 3.8143-0.9121 2.0956 0 3.7992 0.9121 1.7037 0.9046 2.7062 2.676 1.0026 1.764 1.0026 4.342zm-4.3118 0q0-1.387-0.3694-2.3368-0.3618-0.9574-1.078-1.4473-0.7085-0.4976-1.7488-0.4976t-1.7564 0.4976q-0.7086 0.4899-1.078 1.4473-0.3618 0.9498-0.3618 2.3368t0.3618 2.3444q0.3694 0.9498 1.078 1.4473 0.7161 0.49 1.7564 0.49t1.7488-0.49q0.7162-0.4975 1.078-1.4473 0.3694-0.9574 0.3694-2.3444z"/>
   <path d="m1877.8 3736.9v3.3771h-6.6637v12.061h-4.1912v-15.438z"/>
   <path d="m1878.2 3756.7v-15.921h4.1309v2.0202h0.091q0.2261-0.588 0.6633-1.0779 0.4372-0.4976 1.0855-0.7916 0.6483-0.3015 1.5077-0.3015 1.1458 0 2.1785 0.6106 1.0403 0.6106 1.6885 1.9222 0.6559 1.3117 0.6559 3.4073 0 2.0052-0.6257 3.3243-0.6181 1.3192-1.6584 1.9675-1.0327 0.6483-2.269 0.6483-0.8141 0-1.4549-0.2639-0.6332-0.2713-1.0855-0.7312-0.4447-0.4673-0.6859-1.0553h-0.06v6.2416zm4.0706-10.131q0 0.8443 0.2186 1.4624 0.2262 0.6106 0.6332 0.9498 0.4146 0.3317 0.9875 0.3317t0.9724-0.3241q0.4071-0.3317 0.6182-0.9423 0.2186-0.6181 0.2186-1.4775t-0.2186-1.4699q-0.2111-0.6182-0.6182-0.9423-0.3995-0.3317-0.9724-0.3317t-0.9875 0.3317q-0.407 0.3241-0.6332 0.9423-0.2186 0.6105-0.2186 1.4699z"/>
   <path d="m1895.2 3752.5q-1.1081 0-1.96-0.3618-0.8442-0.3694-1.3267-1.1156-0.4824-0.7463-0.4824-1.8997 0-0.9498 0.3241-1.6207 0.3242-0.6784 0.9046-1.1081t1.3493-0.6558q0.7765-0.2262 1.6735-0.294 0.9724-0.075 1.5604-0.1809 0.5955-0.1131 0.8594-0.3091 0.2638-0.2035 0.2638-0.5352v-0.03q0-0.4523-0.3468-0.6936-0.3467-0.2412-0.8895-0.2412-0.5955 0-0.9724 0.2639-0.3693 0.2563-0.4447 0.7915h-3.8294q0.075-1.0554 0.6709-1.9449 0.603-0.897 1.7564-1.4322 1.1533-0.5428 2.8796-0.5428 1.2437 0 2.2313 0.294 0.9875 0.2865 1.681 0.8066 0.6935 0.5126 1.0553 1.2061 0.3694 0.686 0.3694 1.4926v7.9301h-3.8897v-1.6282h-0.091q-0.3467 0.6483-0.8443 1.0478-0.4899 0.3995-1.1231 0.5804-0.6257 0.1809-1.3795 0.1809zm1.3568-2.6233q0.4749 0 0.8895-0.1959 0.4222-0.196 0.686-0.5654 0.2639-0.3694 0.2639-0.8971v-0.9648q-0.1659 0.068-0.3543 0.1281-0.181 0.06-0.392 0.1131-0.2036 0.053-0.4372 0.098-0.2262 0.045-0.4749 0.083-0.4825 0.075-0.7915 0.2488-0.3016 0.1658-0.4523 0.4146-0.1433 0.2412-0.1433 0.5427 0 0.4825 0.3393 0.7388 0.3392 0.2562 0.8668 0.2562z"/>
   <path d="m1903.8 3755.8v-6.5733h0.8442q0.3996-0.1583 0.6257-0.7462 0.2337-0.5956 0.3543-1.3946 0.1282-0.7991 0.1809-1.6132 0.06-0.8216 0.1056-1.4322l0.2412-3.2565h9.8901v8.4427h1.8091v6.5733h-3.9198v-3.4374h-6.0909v3.4374zm4.8244-6.5733h3.558v-5.4275h-2.5931v0.2413q-0.091 1.877-0.3015 3.1283-0.2111 1.2438-0.6634 2.0579z"/>
   <path d="m1925 3752.6q-1.8845 0-3.2263-0.7463-1.3418-0.7538-2.0579-2.0956-0.7161-1.3493-0.7161-3.1283 0-1.7791 0.7161-3.1209 0.7161-1.3493 2.0579-2.0956 1.3418-0.7538 3.2263-0.7538 1.8846 0 3.2264 0.7538 1.3418 0.7463 2.0579 2.0956 0.7161 1.3418 0.7161 3.1209 0 1.779-0.7161 3.1283-0.7161 1.3418-2.0579 2.0956-1.3418 0.7463-3.2264 0.7463zm0.03-3.0756q0.5277 0 0.9121-0.3543 0.3845-0.3543 0.5955-1.0101 0.2111-0.6558 0.2111-1.5604 0-0.9121-0.2111-1.5604-0.211-0.6558-0.5955-1.0101-0.3844-0.3543-0.9121-0.3543-0.5578 0-0.9573 0.3543-0.3996 0.3543-0.6106 1.0101-0.2111 0.6483-0.2111 1.5604 0 0.9046 0.2111 1.5604 0.211 0.6558 0.6106 1.0101 0.3995 0.3543 0.9573 0.3543z"/>
   <path d="m1938.3 3752.6q-1.8845 0-3.2263-0.7463-1.3418-0.7538-2.0579-2.0956-0.7162-1.3493-0.7162-3.1283 0-1.7791 0.7162-3.1209 0.7161-1.3493 2.0579-2.0956 1.3418-0.7538 3.2263-0.7538 1.7037 0 2.9475 0.6181 1.2513 0.6106 1.9373 1.7338 0.6859 1.1157 0.6935 2.6233h-3.8596q-0.083-0.9121-0.5276-1.387-0.4372-0.4825-1.1308-0.4825-0.5427 0-0.9498 0.3166-0.407 0.3091-0.6332 0.9423-0.2261 0.6257-0.2261 1.5755t0.2261 1.583q0.2262 0.6257 0.6332 0.9423 0.4071 0.3091 0.9498 0.3091 0.4599 0 0.8142-0.2111 0.3543-0.2186 0.5729-0.6332 0.2261-0.4222 0.2713-1.0252h3.8596q-0.023 1.5302-0.7011 2.6685-0.6784 1.1307-1.9222 1.7489-1.2363 0.6181-2.955 0.6181z"/>
   <path d="m1951.7 3756.3v-19.358h4.161v19.358zm0-3.7088q-1.4323 0-2.6233-0.4372-1.1911-0.4372-2.0655-1.2363-0.8669-0.799-1.3493-1.8921-0.4749-1.093-0.4749-2.4046 0-1.3117 0.4749-2.4047 0.4824-1.0931 1.3493-1.8921 0.8744-0.7991 2.0655-1.2363 1.191-0.4372 2.6233-0.4372h0.6332v11.94zm0-3.1057h0.3919v-5.7291h-0.3919q-0.4825 0-0.8895 0.2111-0.3996 0.2111-0.6936 0.5955-0.2939 0.3769-0.4598 0.9046-0.1583 0.5201-0.1583 1.1534 0 0.8367 0.2865 1.485 0.2864 0.6483 0.7839 1.0176 0.5051 0.3619 1.1308 0.3619zm4.161 3.1057h-0.6332v-11.94h0.6332q1.4323 0 2.6233 0.4372 1.1911 0.4372 2.0579 1.2363 0.8745 0.799 1.3494 1.8921 0.4824 1.093 0.4824 2.4047 0 1.3116-0.4824 2.4046-0.4749 1.0931-1.3494 1.8921-0.8668 0.7991-2.0579 1.2363-1.191 0.4372-2.6233 0.4372zm0-3.1057q0.4825 0 0.882-0.2111 0.4071-0.2111 0.7011-0.588 0.2939-0.3844 0.4522-0.9046 0.1659-0.5276 0.1659-1.1608 0-0.8443-0.2865-1.4851-0.2789-0.6483-0.7764-1.0101-0.49-0.3694-1.1383-0.3694h-0.392v5.7291z"/>
   <path d="m1969.6 3752.6q-1.8544 0-3.1962-0.7086-1.3343-0.7161-2.0579-2.0504-0.7162-1.3418-0.7162-3.2112 0-1.7941 0.7237-3.1359t2.0428-2.0881q1.3192-0.7463 3.1133-0.7463 1.3116 0 2.3745 0.4071 1.0629 0.407 1.8167 1.1835 0.7538 0.7689 1.1609 1.8694 0.4071 1.1006 0.4071 2.4801v0.9649h-10.342v-2.2916h6.513q-0.01-0.4975-0.2563-0.8744-0.2412-0.3845-0.6558-0.5956-0.4071-0.2186-0.9272-0.2186-0.5051 0-0.9272 0.2186-0.4222 0.2111-0.6785 0.588-0.2487 0.3769-0.2638 0.882v2.4725q0 0.5578 0.2337 0.995 0.2337 0.4373 0.6709 0.686 0.4372 0.2488 1.0553 0.2488 0.4297 0 0.784-0.1206 0.3618-0.1206 0.6181-0.3468 0.2563-0.2337 0.3769-0.5578h3.7993q-0.196 1.2061-0.9272 2.0956-0.7312 0.882-1.9373 1.3719-1.1986 0.4825-2.8042 0.4825z"/>
   <path d="m1976.9 3756.7v-15.921h4.1309v2.0202h0.091q0.2261-0.588 0.6633-1.0779 0.4373-0.4976 1.0855-0.7916 0.6483-0.3015 1.5077-0.3015 1.1458 0 2.1785 0.6106 1.0403 0.6106 1.6886 1.9222 0.6558 1.3117 0.6558 3.4073 0 2.0052-0.6257 3.3243-0.6181 1.3192-1.6584 1.9675-1.0327 0.6483-2.269 0.6483-0.8141 0-1.4548-0.2639-0.6332-0.2713-1.0855-0.7312-0.4448-0.4673-0.686-1.0553h-0.06v6.2416zm4.0706-10.131q0 0.8443 0.2186 1.4624 0.2262 0.6106 0.6332 0.9498 0.4146 0.3317 0.9875 0.3317t0.9725-0.3241q0.407-0.3317 0.6181-0.9423 0.2186-0.6181 0.2186-1.4775t-0.2186-1.4699q-0.2111-0.6182-0.6181-0.9423-0.3996-0.3317-0.9725-0.3317t-0.9875 0.3317q-0.407 0.3241-0.6332 0.9423-0.2186 0.6105-0.2186 1.4699z"/>
   <path d="m1993.9 3752.5q-1.1081 0-1.9599-0.3618-0.8443-0.3694-1.3268-1.1156-0.4824-0.7463-0.4824-1.8997 0-0.9498 0.3241-1.6207 0.3242-0.6784 0.9046-1.1081 0.5805-0.4297 1.3494-0.6558 0.7764-0.2262 1.6734-0.294 0.9725-0.075 1.5604-0.1809 0.5955-0.1131 0.8594-0.3091 0.2638-0.2035 0.2638-0.5352v-0.03q0-0.4523-0.3467-0.6936-0.3468-0.2412-0.8895-0.2412-0.5956 0-0.9725 0.2639-0.3693 0.2563-0.4447 0.7915h-3.8294q0.075-1.0554 0.6709-1.9449 0.603-0.897 1.7564-1.4322 1.1533-0.5428 2.8796-0.5428 1.2438 0 2.2313 0.294 0.9875 0.2865 1.681 0.8066 0.6935 0.5126 1.0553 1.2061 0.3694 0.686 0.3694 1.4926v7.9301h-3.8897v-1.6282h-0.091q-0.3467 0.6483-0.8442 1.0478-0.49 0.3995-1.1232 0.5804-0.6257 0.1809-1.3795 0.1809zm1.3569-2.6233q0.4749 0 0.8895-0.1959 0.4221-0.196 0.6859-0.5654 0.2639-0.3694 0.2639-0.8971v-0.9648q-0.1659 0.068-0.3543 0.1281-0.1809 0.06-0.392 0.1131-0.2035 0.053-0.4372 0.098-0.2262 0.045-0.4749 0.083-0.4825 0.075-0.7915 0.2488-0.3016 0.1658-0.4523 0.4146-0.1433 0.2412-0.1433 0.5427 0 0.4825 0.3393 0.7388 0.3392 0.2562 0.8669 0.2562z"/>
  </g>
  <g transform="matrix(1.5616 0 0 1.5616 -817.26 -2169.7)" stop-color="#000000" stroke-width="7.8347" style="shape-inside:url(#rect7146);white-space:pre" aria-label="разработано">
   <path d="m1813 3757v-16.137h2.2312v1.9026h0.191q0.1986-0.3668 0.573-0.8482 0.3744-0.4813 1.0392-0.8405 0.6647-0.3667 1.7574-0.3667 1.4212 0 2.5367 0.7182 1.1156 0.7183 1.7498 2.0707 0.6418 1.3524 0.6418 3.255 0 1.9025-0.6342 3.2626-0.6342 1.3524-1.7421 2.0859-1.1079 0.7259-2.5291 0.7259-1.0697 0-1.7498-0.3591-0.6723-0.3591-1.0544-0.8405-0.382-0.4814-0.5883-0.8558h-0.1376v6.2273zm2.2388-10.269q0 1.2379 0.3591 2.17 0.3591 0.9322 1.0392 1.4594 0.68 0.5196 1.6657 0.5196 1.0238 0 1.7115-0.5425 0.6877-0.5501 1.0391-1.49 0.3592-0.9398 0.3592-2.1165 0-1.1614-0.3515-2.0859-0.3439-0.9245-1.0392-1.4594-0.6876-0.5348-1.7191-0.5348-0.9933 0-1.681 0.5119-0.6801 0.5119-1.0315 1.4288-0.3515 0.9169-0.3515 2.1394z"/>
   <path d="m1829.7 3752.9q-1.1156 0-2.0172-0.4126-0.9016-0.4203-1.4288-1.2149-0.5196-0.7947-0.5196-1.9484 0-0.9933 0.3821-1.6352 0.382-0.6418 1.0315-1.0162 0.6494-0.3744 1.4517-0.5654t1.6351-0.2904q1.0545-0.1222 1.7116-0.1986 0.6571-0.084 0.9551-0.2674t0.298-0.596v-0.053q0-1.001-0.5654-1.5511-0.5578-0.5501-1.6657-0.5501-1.1538 0-1.8185 0.5119-0.6572 0.5043-0.9093 1.1232l-2.1471-0.489q0.3821-1.0697 1.1156-1.7268 0.7411-0.6648 1.7039-0.9628 0.9627-0.3056 2.0248-0.3056 0.703 0 1.49 0.1681 0.7946 0.1604 1.4823 0.596 0.6953 0.4355 1.1385 1.2454 0.4431 0.8023 0.4431 2.086v7.7936h-2.2311v-1.6046h-0.092q-0.2216 0.4432-0.6647 0.8711-0.4432 0.4278-1.1385 0.7106-0.6953 0.2827-1.6657 0.2827zm0.4966-1.8338q0.9475 0 1.6199-0.3744 0.68-0.3744 1.0315-0.9781 0.3591-0.6112 0.3591-1.3065v-1.5129q-0.1222 0.1222-0.4737 0.2292-0.3438 0.099-0.787 0.1758-0.4432 0.069-0.8634 0.1298-0.4203 0.053-0.703 0.092-0.6647 0.084-1.2149 0.2827-0.5425 0.1987-0.871 0.5731-0.3209 0.3668-0.3209 0.978 0 0.8482 0.6265 1.2837 0.6266 0.4279 1.5969 0.4279z"/>
   <path d="m1837.8 3749.5h2.3381q0.046 0.7182 0.6495 1.1079 0.6112 0.3897 1.5816 0.3897 0.9857 0 1.681-0.4202 0.6953-0.4279 0.6953-1.3219 0-0.5349-0.2674-0.9322-0.2598-0.4049-0.7412-0.6265-0.4737-0.2216-1.1232-0.2216h-1.9102v-1.7956h1.9102q0.9704 0 1.4518-0.4432 0.4814-0.4431 0.4814-1.1079 0-0.7182-0.5196-1.1537-0.5119-0.4432-1.4288-0.4432-0.9322 0-1.5511 0.4202-0.6189 0.4126-0.6495 1.0698h-2.3075q0.023-0.9857 0.596-1.7269 0.5807-0.7488 1.5587-1.1614 0.9857-0.4202 2.2387-0.4202 1.3066 0 2.2617 0.4202 0.9551 0.4203 1.4747 1.1614 0.5272 0.7412 0.5272 1.7039 0 0.9704-0.5807 1.5893-0.5731 0.6113-1.4976 0.8787v0.1223q0.68 0.046 1.2073 0.4126 0.5272 0.3667 0.8252 0.9704 0.298 0.6036 0.298 1.3677 0 1.0773-0.596 1.8643-0.5884 0.787-1.6352 1.2149-1.0391 0.4202-2.3762 0.4202-1.299 0-2.3305-0.4049-1.0239-0.4126-1.6275-1.1614-0.596-0.7488-0.6342-1.7727z"/>
   <path d="m1849.4 3757v-16.137h2.2311v1.9026h0.191q0.1987-0.3668 0.5731-0.8482 0.3744-0.4813 1.0391-0.8405 0.6648-0.3667 1.7574-0.3667 1.4212 0 2.5368 0.7182 1.1155 0.7183 1.7497 2.0707 0.6418 1.3524 0.6418 3.255 0 1.9025-0.6342 3.2626-0.6341 1.3524-1.7421 2.0859-1.1079 0.7259-2.5291 0.7259-1.0697 0-1.7497-0.3591-0.6724-0.3591-1.0544-0.8405-0.3821-0.4814-0.5884-0.8558h-0.1375v6.2273zm2.2387-10.269q0 1.2379 0.3592 2.17 0.3591 0.9322 1.0391 1.4594 0.68 0.5196 1.6657 0.5196 1.0239 0 1.7115-0.5425 0.6877-0.5501 1.0392-1.49 0.3591-0.9398 0.3591-2.1165 0-1.1614-0.3515-2.0859-0.3438-0.9245-1.0391-1.4594-0.6877-0.5348-1.7192-0.5348-0.9933 0-1.681 0.5119-0.68 0.5119-1.0315 1.4288t-0.3515 2.1394z"/>
   <path d="m1866.1 3752.9q-1.1155 0-2.0171-0.4126-0.9016-0.4203-1.4289-1.2149-0.5195-0.7947-0.5195-1.9484 0-0.9933 0.382-1.6352 0.382-0.6418 1.0315-1.0162t1.4518-0.5654q0.8022-0.191 1.6351-0.2904 1.0544-0.1222 1.7115-0.1986 0.6571-0.084 0.9551-0.2674t0.298-0.596v-0.053q0-1.001-0.5654-1.5511-0.5578-0.5501-1.6657-0.5501-1.1538 0-1.8185 0.5119-0.6571 0.5043-0.9093 1.1232l-2.147-0.489q0.382-1.0697 1.1155-1.7268 0.7412-0.6648 1.7039-0.9628 0.9628-0.3056 2.0248-0.3056 0.703 0 1.49 0.1681 0.7946 0.1604 1.4823 0.596 0.6953 0.4355 1.1385 1.2454 0.4432 0.8023 0.4432 2.086v7.7936h-2.2311v-1.6046h-0.092q-0.2216 0.4432-0.6648 0.8711-0.4432 0.4278-1.1385 0.7106-0.6953 0.2827-1.6657 0.2827zm0.4967-1.8338q0.9474 0 1.6198-0.3744 0.6801-0.3744 1.0315-0.9781 0.3592-0.6112 0.3592-1.3065v-1.5129q-0.1223 0.1222-0.4738 0.2292-0.3438 0.099-0.787 0.1758-0.4431 0.069-0.8634 0.1298-0.4202 0.053-0.7029 0.092-0.6648 0.084-1.2149 0.2827-0.5425 0.1987-0.8711 0.5731-0.3209 0.3668-0.3209 0.978 0 0.8482 0.6266 1.2837 0.6265 0.4279 1.5969 0.4279z"/>
   <path d="m1884 3736.5 0.9475 1.4441q-0.5272 0.4813-1.1996 0.6876-0.6648 0.1987-1.5358 0.2522-0.8711 0.046-1.9943 0.084-1.2683 0.038-2.0859 0.5502-0.8176 0.5043-1.2607 1.4976-0.4356 0.9856-0.5655 2.4756h0.1452q0.5731-1.0926 1.5893-1.6351 1.0239-0.5425 2.2999-0.5425 1.4212 0 2.5291 0.6494 1.1079 0.6495 1.7421 1.9026 0.6418 1.2454 0.6418 3.0487 0 1.8261-0.6724 3.1556-0.6647 1.3295-1.8796 2.0554-1.2072 0.7182-2.85 0.7182t-2.8653-0.7411q-1.2149-0.7488-1.8873-2.2158-0.6647-1.4671-0.6647-3.6218v-1.1614q0-4.0267 1.4364-6.0591 1.4365-2.0325 4.2942-2.086 0.9245-0.023 1.6504-0.01 0.7258 0.01 1.2683-0.069 0.5502-0.084 0.9169-0.382zm-4.1413 14.426q0.9551 0 1.6428-0.4814 0.6953-0.489 1.0697-1.383 0.3744-0.8939 0.3744-2.1088 0-1.192-0.3744-2.0248-0.3744-0.8329-1.0697-1.2684-0.6953-0.4432-1.6657-0.4432-0.7182 0-1.2837 0.2522-0.5654 0.2445-0.9703 0.7259-0.3974 0.4813-0.6189 1.1766-0.214 0.6877-0.2293 1.5817 0 1.8185 0.8329 2.8958 0.8405 1.0774 2.2922 1.0774z"/>
   <path d="m1892.7 3752.8q-1.6505 0-2.8806-0.7564-1.2302-0.7564-1.9102-2.1165-0.6801-1.3601-0.6801-3.1786 0-1.8261 0.6801-3.1938 0.68-1.3677 1.9102-2.1242 1.2301-0.7564 2.8806-0.7564 1.6504 0 2.8805 0.7564 1.2302 0.7565 1.9102 2.1242 0.6801 1.3677 0.6801 3.1938 0 1.8185-0.6801 3.1786-0.68 1.3601-1.9102 2.1165-1.2301 0.7564-2.8805 0.7564zm0.01-1.9178q1.0697 0 1.7727-0.5654 0.7029-0.5654 1.0391-1.5053 0.3438-0.9398 0.3438-2.0706 0-1.1232-0.3438-2.063-0.3362-0.9475-1.0391-1.5206-0.703-0.573-1.7727-0.573-1.0774 0-1.788 0.573-0.7029 0.5731-1.0467 1.5206-0.3362 0.9398-0.3362 2.063 0 1.1308 0.3362 2.0706 0.3438 0.9399 1.0467 1.5053 0.7106 0.5654 1.788 0.5654z"/>
   <path d="m1899.3 3742.8v-1.9713h9.9025v1.9713h-3.8281v9.765h-2.2311v-9.765z"/>
   <path d="m1914.5 3752.9q-1.1156 0-2.0172-0.4126-0.9016-0.4203-1.4288-1.2149-0.5196-0.7947-0.5196-1.9484 0-0.9933 0.382-1.6352 0.3821-0.6418 1.0315-1.0162 0.6495-0.3744 1.4518-0.5654t1.6351-0.2904q1.0545-0.1222 1.7116-0.1986 0.6571-0.084 0.9551-0.2674t0.298-0.596v-0.053q0-1.001-0.5655-1.5511-0.5577-0.5501-1.6657-0.5501-1.1537 0-1.8185 0.5119-0.6571 0.5043-0.9092 1.1232l-2.1471-0.489q0.382-1.0697 1.1156-1.7268 0.7411-0.6648 1.7039-0.9628 0.9627-0.3056 2.0248-0.3056 0.7029 0 1.4899 0.1681 0.7947 0.1604 1.4823 0.596 0.6954 0.4355 1.1385 1.2454 0.4432 0.8023 0.4432 2.086v7.7936h-2.2311v-1.6046h-0.092q-0.2216 0.4432-0.6648 0.8711-0.4431 0.4278-1.1384 0.7106-0.6954 0.2827-1.6657 0.2827zm0.4966-1.8338q0.9475 0 1.6199-0.3744 0.68-0.3744 1.0315-0.9781 0.3591-0.6112 0.3591-1.3065v-1.5129q-0.1223 0.1222-0.4737 0.2292-0.3439 0.099-0.787 0.1758-0.4432 0.069-0.8635 0.1298-0.4202 0.053-0.7029 0.092-0.6648 0.084-1.2149 0.2827-0.5425 0.1987-0.871 0.5731-0.321 0.3668-0.321 0.978 0 0.8482 0.6266 1.2837 0.6265 0.4279 1.5969 0.4279z"/>
   <path d="m1931.3 3745.8v1.9789h-6.3572v-1.9789zm-5.7153-4.8825v11.736h-2.2388v-11.736zm7.3122 0v11.736h-2.2311v-11.736z"/>
   <path d="m1940.9 3752.8q-1.6504 0-2.8806-0.7564-1.2301-0.7564-1.9102-2.1165-0.68-1.3601-0.68-3.1786 0-1.8261 0.68-3.1938 0.6801-1.3677 1.9102-2.1242 1.2302-0.7564 2.8806-0.7564t2.8806 0.7564q1.2302 0.7565 1.9102 2.1242t0.68 3.1938q0 1.8185-0.68 3.1786t-1.9102 2.1165-2.8806 0.7564zm0.01-1.9178q1.0697 0 1.7726-0.5654 0.703-0.5654 1.0392-1.5053 0.3438-0.9398 0.3438-2.0706 0-1.1232-0.3438-2.063-0.3362-0.9475-1.0392-1.5206-0.7029-0.573-1.7726-0.573-1.0774 0-1.788 0.573-0.703 0.5731-1.0468 1.5206-0.3362 0.9398-0.3362 2.063 0 1.1308 0.3362 2.0706 0.3438 0.9399 1.0468 1.5053 0.7106 0.5654 1.788 0.5654z"/>
  </g>
 </g>
 <g transform="matrix(.063784 0 0 .063784 33.554 97.455)" fill="#fff">
  <rect x="581.4" y="2030.5" width="302.15" height="302.15" ry="151.08" stop-color="#000000" stroke-linecap="round" stroke-linejoin="round" stroke-width="41.061"/>
  <g transform="matrix(1.2579 0 0 1.2579 581.4 2030.5)" stroke-width="3.2977">
   <circle cx="120.1" cy="120.1" r="120.1" clip-rule="evenodd" fill="#fff" fill-rule="evenodd" stroke-width="2.6215"/>
  </g>
 </g>
 <g transform="matrix(.063784 0 0 .063784 6.7921 97.455)">
  <rect x="581.4" y="2030.5" width="302.15" height="302.15" ry="151.08" fill="#2aabee" stop-color="#000000" stroke-linecap="round" stroke-linejoin="round" stroke-width="41.061"/>
  <g transform="matrix(1.2579 0 0 1.2579 581.4 2030.5)" clip-rule="evenodd" fill-rule="evenodd" stroke-width="2.6215">
   <circle cx="120.1" cy="120.1" r="120.1" fill="url(#Oval_1_)"/>
   <path d="m54.3 118.8c35-15.2 58.3-25.3 70-30.2 33.3-13.9 40.3-16.3 44.8-16.4 1 0 3.2 0.2 4.7 1.4 1.2 1 1.5 2.3 1.7 3.3s0.4 3.1 0.2 4.7c-1.8 19-9.6 65.1-13.6 86.3-1.7 9-5 12-8.2 12.3-7 0.6-12.3-4.6-19-9-10.6-6.9-16.5-11.2-26.8-18-11.9-7.8-4.2-12.1 2.6-19.1 1.8-1.8 32.5-29.8 33.1-32.3 0.1-0.3 0.1-1.5-0.6-2.1s-1.7-0.4-2.5-0.2c-1.1 0.2-17.9 11.4-50.6 33.5-4.8 3.3-9.1 4.9-13 4.8-4.3-0.1-12.5-2.4-18.7-4.4-7.5-2.4-13.5-3.7-13-7.9 0.3-2.2 3.3-4.4 8.9-6.7z" fill="#fff"/>
  </g>
 </g>
 <g transform="matrix(.063784 0 0 .063784 60.316 97.455)" fill="#fff">
  <rect x="581.4" y="2030.5" width="302.15" height="302.15" ry="151.08" stop-color="#000000" stroke-linecap="round" stroke-linejoin="round" stroke-width="41.061"/>
  <g transform="matrix(1.2579 0 0 1.2579 581.4 2030.5)" stroke-width="3.2977">
   <circle cx="120.1" cy="120.1" r="120.1" clip-rule="evenodd" fill="#fff" fill-rule="evenodd" stroke-width="2.6215"/>
  </g>
 </g>
 <path class="fil2" d="m88.039 236.61c0 4.2882-3.4768 7.7649-7.7657 7.7649-4.2883 0-7.7648-3.4767-7.7648-7.7649 0-4.2888 3.4765-7.7656 7.7648-7.7656 4.2889 0 7.7657 3.4767 7.7657 7.7656zm-6.8692 3.9711c0.41957-1.2948 1.6364-2.231 3.0712-2.231 0.0489 0 0.0977 0 0.14647 4e-3 0.41285-0.6975 0.65037-1.5118 0.65037-2.3809 0-2.5844-2.0958-4.6798-4.6796-4.6798-2.5841 0-4.6799 2.0954-4.6799 4.6798 0 0.86909 0.23719 1.6834 0.65043 2.3809 0.0487-4e-3 0.0974-4e-3 0.1464-4e-3 1.4349 0 2.6516 0.93632 3.0712 2.231 0.1025 0.3142 0.3798 1.4059 0.3798 1.7535v1.1687c-3.6503-0.18117-6.5553-3.1975-6.5553-6.8933 0-3.8117 3.0903-6.9019 6.9024-6.9019 3.8117 0 6.9023 3.0902 6.9023 6.9019 0 3.6381-2.8152 6.6192-6.3856 6.8824v-1.1607c0-0.35146 0.2776-1.4377 0.3798-1.7506zm-0.3798-7.715c0.37344-0.14771 0.75671-0.27186 1.1458-0.37023-0.35623-0.16111-0.74143-0.27028-1.1458-0.31616zm2.1594 0.30499c-0.74397 0.11298-1.4702 0.32534-2.1594 0.63127v1.056c0.89363-0.45969 1.8656-0.73316 2.8646-0.81025-0.19104-0.32688-0.42855-0.62172-0.70519-0.87702zm1.0703 1.7213c-1.1391 0.0369-2.2479 0.36101-3.2298 0.95411v1.4026c0.47022-0.37533 1.0006-0.67297 1.5714-0.87863 0.58357-0.21108 1.1958-0.32061 1.8124-0.32791v-0.0707c0-0.37503-0.0541-0.73764-0.1544-1.0795zm0.0384 2.0164c-0.47753 0.0188-0.95124 0.10992-1.4046 0.27379-0.71405 0.25725-1.3523 0.68541-1.8636 1.2451v0.95093c0.67079-1.0518 1.7981-1.7544 3.0642-1.8738 0.0847-0.19324 0.1528-0.39252 0.20405-0.59597zm-4.132 2.4701v-7.1993c-1.9048 0.21491-3.3842 1.8299-3.3842 3.7922 0 0.53102 0.10855 1.0509 0.31964 1.5329 1.2664 0.11938 2.3937 0.82201 3.0645 1.8742z" clip-rule="evenodd" fill="#21a73f" fill-rule="evenodd" image-rendering="optimizeQuality" shape-rendering="geometricPrecision" stroke-width=".00025812"/>
 <g transform="matrix(-.02733 0 0 -.027092 128.04 261.48)" fill="#21a73f" stroke-linecap="round" stroke-linejoin="round" stroke-width="97.237">
  <path d="m708.08 859.8-85.407-49.708c44.458-77.778 44.458-77.778 44.458-77.778 12.285-21.637 57.913-22.222 73.707-3.5088l21.644 36.257z"/>
  <path d="m639.05 978.52h-45.628c-17.549-1.9006-46.798-38.012-29.249-70.76 19.889-33.333 19.889-33.333 19.889-33.333l-31.004-18.129h98.276c49.723 85.38 49.723 85.38 49.723 85.38l-31.004-16.959z"/>
  <path d="m756.63 990.8v100h-109.39c-6.4348 0.5848-11.115-5.8479-14.624-11.111-51.478-91.228-50.893-90.643-53.233-93.567 2.7786 2.3392 5.8498 4.6784 14.624 4.6784z"/>
  <path d="m946.16 990.8c11.115-1.1696 12.87-4.0936 15.794-5.848-54.988 97.076-54.988 97.076-54.988 97.076-2.3399 4.6783-7.0197 8.7719-14.039 8.7719h-60.838v35.672l-49.723-84.795c49.723-85.38 49.723-85.38 49.723-85.38v34.503z"/>
  <path d="m847.89 884.95 85.992-49.123c45.043 76.608 45.043 76.608 45.043 76.608 16.379 31.579-11.7 61.988-30.419 65.497h-46.213z"/>
  <path d="m753.12 721.21c-3.5099-4.6784-10.53-10.526-16.964-11.696h115.24c6.4348 0 12.285 2.3392 15.209 7.6023 29.834 52.632 29.834 52.632 29.834 52.632l29.834-16.959c-48.553 84.211-48.553 84.211-48.553 84.211h-97.106l29.249-17.544z"/>
 </g>
</svg>
